<?xml version="1.0" encoding="UTF-8" standalone="no"?>
<!DOCTYPE svg PUBLIC "-//W3C//DTD SVG 1.1//EN"
 "http://www.w3.org/Graphics/SVG/1.1/DTD/svg11.dtd">
<!-- Generated by graphviz version 10.0.1 (0)
 -->
<!-- Title: Snapshot Pages: 1 -->
<svg width="196pt" height="160pt"
 viewBox="0.00 0.00 195.88 160.25" xmlns="http://www.w3.org/2000/svg" xmlns:xlink="http://www.w3.org/1999/xlink">

<svg id="main" version="1.1" xmlns="http://www.w3.org/2000/svg" xmlns:xlink="http://www.w3.org/1999/xlink" xml:space="preserve" onload="init(evt)">
<style type="text/css"><![CDATA[
.node, .edge {opacity: 0.7;}
.node.selected, .edge.selected {opacity: 1;}
.edge:hover path { stroke: red; }
.edge:hover polygon { stroke: red; fill: red; }
]]></style>
<script type="application/ecmascript" xlink:href="../../svg.min.js"/>
<svg id="graph" class="graph">
<g id="graph0" class="graph" transform="scale(1 1) rotate(0) translate(4 156.25)">
<title>Snapshot</title>
<!-- Node1 -->
<g id="Node000001" class="node">
<title>Node1</title>
<g id="a_Node000001"><a xlink:title=" ">
<polygon fill="#999999" stroke="#666666" points="113.5,-19.25 51.75,-19.25 51.75,0 113.5,0 113.5,-19.25"/>
<text text-anchor="middle" x="82.62" y="-4.8" font-family="Arial" font-size="11.00">Snapshot</text>
</a>
</g>
</g>
<!-- Node2 -->
<g id="Node000002" class="node">
<title>Node2</title>
<g id="a_Node000002"><a xlink:href="../../dd/d5e/structwinapi_1_1Handle.html" target="_top" xlink:title=" ">
<polygon fill="white" stroke="#bfbfbf" points="59.5,-85.75 9.75,-85.75 9.75,-66.5 59.5,-66.5 59.5,-85.75"/>
<text text-anchor="middle" x="34.62" y="-71.3" font-family="Arial" font-size="11.00">Handle</text>
</a>
</g>
</g>
<!-- Node2&#45;&gt;Node1 -->
<g id="edge1_Node000001_Node000002" class="edge">
<title>Node2&#45;&gt;Node1</title>
<g id="a_edge1_Node000001_Node000002"><a xlink:title=" ">
<path fill="none" stroke="#9a32cd" stroke-dasharray="5,2" d="M42.45,-55.87C45.42,-49.64 49.12,-42.89 53.38,-37.25 58.34,-30.67 65.07,-24.41 70.83,-19.61"/>
<polygon fill="#9a32cd" stroke="#9a32cd" points="39.35,-54.22 38.55,-64.79 45.76,-57.03 39.35,-54.22"/>
</a>
</g>
<text text-anchor="middle" x="78.75" y="-38.05" font-family="Arial" font-size="11.00" fill="grey"> m_handle</text>
</g>
<!-- Node3 -->
<g id="Node000003" class="node">
<title>Node3</title>
<g id="a_Node000003"><a xlink:href="../../db/d87/structwinapi_1_1detail_1_1PointerLike.html" target="_top" xlink:title=" ">
<polygon fill="white" stroke="#bfbfbf" points="69.25,-152.25 0,-152.25 0,-133 69.25,-133 69.25,-152.25"/>
<text text-anchor="middle" x="34.62" y="-137.8" font-family="Arial" font-size="11.00">PointerLike</text>
</a>
</g>
</g>
<!-- Node3&#45;&gt;Node2 -->
<g id="edge2_Node000002_Node000003" class="edge">
<title>Node3&#45;&gt;Node2</title>
<g id="a_edge2_Node000002_Node000003"><a xlink:title=" ">
<path fill="none" stroke="#63b8ff" d="M34.62,-121.15C34.62,-109.32 34.62,-95.04 34.62,-86.02"/>
<polygon fill="#63b8ff" stroke="#63b8ff" points="31.13,-121.14 34.63,-131.14 38.13,-121.14 31.13,-121.14"/>
</a>
</g>
</g>
<!-- Node4 -->
<g id="Node000004" class="node">
<title>Node4</title>
<g id="a_Node000004"><a xlink:title=" ">
<polygon fill="white" stroke="#666666" points="187.88,-85.75 77.38,-85.75 77.38,-66.5 187.88,-66.5 187.88,-85.75"/>
<text text-anchor="middle" x="132.62" y="-71.3" font-family="Arial" font-size="11.00">set&lt; IncludeFlags &gt;</text>
</a>
</g>
</g>
<!-- Node4&#45;&gt;Node1 -->
<g id="edge3_Node000001_Node000004" class="edge">
<title>Node4&#45;&gt;Node1</title>
<g id="a_edge3_Node000001_Node000004"><a xlink:title=" ">
<path fill="none" stroke="#9a32cd" stroke-dasharray="5,2" d="M118.88,-57.06C114.07,-50.77 108.63,-43.69 103.62,-37.25 99,-31.3 93.75,-24.64 89.66,-19.47"/>
<polygon fill="#9a32cd" stroke="#9a32cd" points="115.98,-59.04 124.83,-64.86 121.55,-54.79 115.98,-59.04"/>
</a>
</g>
<text text-anchor="middle" x="145.75" y="-38.05" font-family="Arial" font-size="11.00" fill="grey"> m_flags_valid</text>
</g>
<!-- Node5 -->
<g id="Node000005" class="node">
<title>Node5</title>
<g id="a_Node000005"><a xlink:title=" ">
<polygon fill="white" stroke="#bfbfbf" points="171,-152.25 94.25,-152.25 94.25,-133 171,-133 171,-152.25"/>
<text text-anchor="middle" x="132.62" y="-137.8" font-family="Arial" font-size="11.00">IncludeFlags</text>
</a>
</g>
</g>
<!-- Node5&#45;&gt;Node4 -->
<g id="edge4_Node000004_Node000005" class="edge">
<title>Node5&#45;&gt;Node4</title>
<g id="a_edge4_Node000004_Node000005"><a xlink:title=" ">
<path fill="none" stroke="#9a32cd" stroke-dasharray="5,2" d="M132.62,-121.15C132.62,-109.32 132.62,-95.04 132.62,-86.02"/>
<polygon fill="#9a32cd" stroke="#9a32cd" points="129.13,-121.14 132.63,-131.14 136.13,-121.14 129.13,-121.14"/>
</a>
</g>
<text text-anchor="middle" x="145" y="-104.55" font-family="Arial" font-size="11.00" fill="grey"> keys</text>
</g>
</g>
</svg>
</svg>

<style type='text/css'>
<![CDATA[
[data-mouse-over-selected='false'] { opacity: 0.7; }
[data-mouse-over-selected='true']  { opacity: 1.0; }
]]>
</style>
<script type="application/ecmascript"><![CDATA[
document.addEventListener('DOMContentLoaded', (event) => {
  highlightEdges();
  highlightAdjacentNodes();
});
]]></script>
</svg>
