<?xml version="1.0" encoding="UTF-8" standalone="no"?>
<!DOCTYPE svg PUBLIC "-//W3C//DTD SVG 1.1//EN"
 "http://www.w3.org/Graphics/SVG/1.1/DTD/svg11.dtd">
<!-- Generated by graphviz version 10.0.1 (0)
 -->
<!-- Title: Snapshot Pages: 1 -->
<svg width="238pt" height="160pt"
 viewBox="0.00 0.00 238.25 160.25" xmlns="http://www.w3.org/2000/svg" xmlns:xlink="http://www.w3.org/1999/xlink">
<g id="graph0" class="graph" transform="scale(1 1) rotate(0) translate(4 156.25)">
<title>Snapshot</title>
<!-- Node1 -->
<g id="Node000001" class="node">
<title>Node1</title>
<g id="a_Node000001"><a xlink:title=" ">
<polygon fill="#999999" stroke="#666666" points="107.88,-19.25 46.12,-19.25 46.12,0 107.88,0 107.88,-19.25"/>
<text text-anchor="middle" x="77" y="-4.8" font-family="Arial" font-size="11.00">Snapshot</text>
</a>
</g>
</g>
<!-- Node2 -->
<g id="Node000002" class="node">
<title>Node2</title>
<g id="a_Node000002"><a xlink:href="../../df/d9b/structwinapi_1_1PID.html" target="_top" xlink:title="Wrapper for process ID (PID) integer.">
<polygon fill="white" stroke="#666666" points="34,-85.75 0,-85.75 0,-66.5 34,-66.5 34,-85.75"/>
<text text-anchor="middle" x="17" y="-71.3" font-family="Arial" font-size="11.00">PID</text>
</a>
</g>
</g>
<!-- Node2&#45;&gt;Node1 -->
<g id="edge1_Node000001_Node000002" class="edge">
<title>Node2&#45;&gt;Node1</title>
<g id="a_edge1_Node000001_Node000002"><a xlink:title=" ">
<path fill="none" stroke="#9a32cd" stroke-dasharray="5,2" d="M26.98,-56.15C30.82,-49.77 35.54,-42.86 40.75,-37.25 47.02,-30.5 55.21,-24.32 62.22,-19.61"/>
<polygon fill="#9a32cd" stroke="#9a32cd" points="24.01,-54.29 22.17,-64.73 30.11,-57.72 24.01,-54.29"/>
</a>
</g>
<text text-anchor="middle" x="57.12" y="-38.05" font-family="Arial" font-size="11.00" fill="grey"> m_pid</text>
</g>
<!-- Node3 -->
<g id="Node000003" class="node">
<title>Node3</title>
<g id="a_Node000003"><a xlink:href="../../dd/d5e/structwinapi_1_1Handle.html" target="_top" xlink:title=" ">
<polygon fill="white" stroke="#bfbfbf" points="101.88,-85.75 52.12,-85.75 52.12,-66.5 101.88,-66.5 101.88,-85.75"/>
<text text-anchor="middle" x="77" y="-71.3" font-family="Arial" font-size="11.00">Handle</text>
</a>
</g>
</g>
<!-- Node3&#45;&gt;Node1 -->
<g id="edge2_Node000001_Node000003" class="edge">
<title>Node3&#45;&gt;Node1</title>
<g id="a_edge2_Node000001_Node000003"><a xlink:title=" ">
<path fill="none" stroke="#9a32cd" stroke-dasharray="5,2" d="M77,-54.65C77,-42.82 77,-28.54 77,-19.52"/>
<polygon fill="#9a32cd" stroke="#9a32cd" points="73.5,-54.64 77,-64.64 80.5,-54.64 73.5,-54.64"/>
</a>
</g>
<text text-anchor="middle" x="102.12" y="-38.05" font-family="Arial" font-size="11.00" fill="grey"> m_handle</text>
</g>
<!-- Node4 -->
<g id="Node000004" class="node">
<title>Node4</title>
<g id="a_Node000004"><a xlink:href="../../db/d87/structwinapi_1_1detail_1_1PointerLike.html" target="_top" xlink:title=" ">
<polygon fill="white" stroke="#bfbfbf" points="111.62,-152.25 42.38,-152.25 42.38,-133 111.62,-133 111.62,-152.25"/>
<text text-anchor="middle" x="77" y="-137.8" font-family="Arial" font-size="11.00">PointerLike</text>
</a>
</g>
</g>
<!-- Node4&#45;&gt;Node3 -->
<g id="edge3_Node000003_Node000004" class="edge">
<title>Node4&#45;&gt;Node3</title>
<g id="a_edge3_Node000003_Node000004"><a xlink:title=" ">
<path fill="none" stroke="#63b8ff" d="M77,-121.15C77,-109.32 77,-95.04 77,-86.02"/>
<polygon fill="#63b8ff" stroke="#63b8ff" points="73.5,-121.14 77,-131.14 80.5,-121.14 73.5,-121.14"/>
</a>
</g>
</g>
<!-- Node5 -->
<g id="Node000005" class="node">
<title>Node5</title>
<g id="a_Node000005"><a xlink:title=" ">
<polygon fill="white" stroke="#666666" points="230.25,-85.75 119.75,-85.75 119.75,-66.5 230.25,-66.5 230.25,-85.75"/>
<text text-anchor="middle" x="175" y="-71.3" font-family="Arial" font-size="11.00">set&lt; IncludeFlags &gt;</text>
</a>
</g>
</g>
<!-- Node5&#45;&gt;Node1 -->
<g id="edge4_Node000001_Node000005" class="edge">
<title>Node5&#45;&gt;Node1</title>
<g id="a_edge4_Node000001_Node000005"><a xlink:title=" ">
<path fill="none" stroke="#9a32cd" stroke-dasharray="5,2" d="M157.86,-58.59C150.04,-51.52 140.43,-43.48 131,-37.25 120.8,-30.5 108.64,-24.36 98.45,-19.68"/>
<polygon fill="#9a32cd" stroke="#9a32cd" points="155.3,-60.99 165,-65.24 160.07,-55.86 155.3,-60.99"/>
</a>
</g>
<text text-anchor="middle" x="180.12" y="-38.05" font-family="Arial" font-size="11.00" fill="grey"> m_flags_valid</text>
</g>
<!-- Node6 -->
<g id="Node000006" class="node">
<title>Node6</title>
<g id="a_Node000006"><a xlink:title=" ">
<polygon fill="white" stroke="#bfbfbf" points="213.38,-152.25 136.62,-152.25 136.62,-133 213.38,-133 213.38,-152.25"/>
<text text-anchor="middle" x="175" y="-137.8" font-family="Arial" font-size="11.00">IncludeFlags</text>
</a>
</g>
</g>
<!-- Node6&#45;&gt;Node5 -->
<g id="edge5_Node000005_Node000006" class="edge">
<title>Node6&#45;&gt;Node5</title>
<g id="a_edge5_Node000005_Node000006"><a xlink:title=" ">
<path fill="none" stroke="#9a32cd" stroke-dasharray="5,2" d="M175,-121.15C175,-109.32 175,-95.04 175,-86.02"/>
<polygon fill="#9a32cd" stroke="#9a32cd" points="171.5,-121.14 175,-131.14 178.5,-121.14 171.5,-121.14"/>
</a>
</g>
<text text-anchor="middle" x="187.38" y="-104.55" font-family="Arial" font-size="11.00" fill="grey"> keys</text>
</g>
</g>
</svg>
