<?xml version="1.0" encoding="UTF-8" standalone="no"?>
<!DOCTYPE svg PUBLIC "-//W3C//DTD SVG 1.1//EN"
 "http://www.w3.org/Graphics/SVG/1.1/DTD/svg11.dtd">
<!-- Generated by graphviz version 10.0.1 (0)
 -->
<!-- Title: Graph Legend Pages: 1 -->
<svg width="538pt" height="160pt"
 viewBox="0.00 0.00 537.75 160.25" xmlns="http://www.w3.org/2000/svg" xmlns:xlink="http://www.w3.org/1999/xlink">
<g id="graph0" class="graph" transform="scale(1 1) rotate(0) translate(4 156.25)">
<title>Graph Legend</title>
<!-- Node9 -->
<g id="Node000009" class="node">
<title>Node9</title>
<g id="a_Node000009"><a xlink:title=" ">
<polygon fill="#999999" stroke="#666666" points="310,-19.25 252,-19.25 252,0 310,0 310,-19.25"/>
<text text-anchor="middle" x="281" y="-4.8" font-family="Arial" font-size="11.00">Inherited</text>
</a>
</g>
</g>
<!-- Node10 -->
<g id="Node000010" class="node">
<title>Node10</title>
<g id="a_Node000010"><a xlink:title=" ">
<polygon fill="white" stroke="#666666" points="70,-85.75 0,-85.75 0,-66.5 70,-66.5 70,-85.75"/>
<text text-anchor="middle" x="35" y="-71.3" font-family="Arial" font-size="11.00">PublicBase</text>
</a>
</g>
</g>
<!-- Node10&#45;&gt;Node9 -->
<g id="edge1" class="edge">
<title>Node10&#45;&gt;Node9</title>
<g id="a_edge1"><a xlink:title=" ">
<path fill="none" stroke="#63b8ff" d="M80.56,-63.18C130.6,-50.06 209.49,-29.38 251.83,-18.27"/>
<polygon fill="#63b8ff" stroke="#63b8ff" points="79.97,-59.71 71.19,-65.64 81.75,-66.49 79.97,-59.71"/>
</a>
</g>
</g>
<!-- Node11 -->
<g id="Node000011" class="node">
<title>Node11</title>
<g id="a_Node000011"><a xlink:title=" ">
<polygon fill="#fff0f0" stroke="red" points="67,-152.25 3,-152.25 3,-133 67,-133 67,-152.25"/>
<text text-anchor="middle" x="35" y="-137.8" font-family="Arial" font-size="11.00">Truncated</text>
</a>
</g>
</g>
<!-- Node11&#45;&gt;Node10 -->
<g id="edge2" class="edge">
<title>Node11&#45;&gt;Node10</title>
<g id="a_edge2"><a xlink:title=" ">
<path fill="none" stroke="#63b8ff" d="M35,-121.15C35,-109.32 35,-95.04 35,-86.02"/>
<polygon fill="#63b8ff" stroke="#63b8ff" points="31.5,-121.14 35,-131.14 38.5,-121.14 31.5,-121.14"/>
</a>
</g>
</g>
<!-- Node13 -->
<g id="node4" class="node">
<title>Node13</title>
<g id="a_node4"><a xlink:title=" ">
<polygon fill="white" stroke="#666666" points="175.62,-85.75 88.38,-85.75 88.38,-66.5 175.62,-66.5 175.62,-85.75"/>
<text text-anchor="middle" x="132" y="-71.3" font-family="Arial" font-size="11.00">ProtectedBase</text>
</a>
</g>
</g>
<!-- Node13&#45;&gt;Node9 -->
<g id="edge3" class="edge">
<title>Node13&#45;&gt;Node9</title>
<g id="a_edge3"><a xlink:title=" ">
<path fill="none" stroke="darkgreen" d="M163.46,-61.51C192.54,-48.92 234.94,-30.56 260.07,-19.68"/>
<polygon fill="darkgreen" stroke="darkgreen" points="162.21,-58.23 154.42,-65.42 164.99,-64.66 162.21,-58.23"/>
</a>
</g>
</g>
<!-- Node14 -->
<g id="node5" class="node">
<title>Node14</title>
<g id="a_node5"><a xlink:title=" ">
<polygon fill="white" stroke="#666666" points="268.25,-85.75 193.75,-85.75 193.75,-66.5 268.25,-66.5 268.25,-85.75"/>
<text text-anchor="middle" x="231" y="-71.3" font-family="Arial" font-size="11.00">PrivateBase</text>
</a>
</g>
</g>
<!-- Node14&#45;&gt;Node9 -->
<g id="edge4" class="edge">
<title>Node14&#45;&gt;Node9</title>
<g id="a_edge4"><a xlink:title=" ">
<path fill="none" stroke="#8b1a1a" d="M244.86,-57.24C254.37,-44.97 266.59,-29.21 274.11,-19.52"/>
<polygon fill="#8b1a1a" stroke="#8b1a1a" points="242.24,-54.91 238.88,-64.96 247.77,-59.2 242.24,-54.91"/>
</a>
</g>
</g>
<!-- Node15 -->
<g id="Node000015" class="node">
<title>Node15</title>
<g id="a_Node000015"><a xlink:title=" ">
<polygon fill="#e0e0e0" stroke="#999999" points="375.75,-85.75 286.25,-85.75 286.25,-66.5 375.75,-66.5 375.75,-85.75"/>
<text text-anchor="middle" x="331" y="-71.3" font-family="Arial" font-size="11.00">Undocumented</text>
</a>
</g>
</g>
<!-- Node15&#45;&gt;Node9 -->
<g id="edge5" class="edge">
<title>Node15&#45;&gt;Node9</title>
<g id="a_edge5"><a xlink:title=" ">
<path fill="none" stroke="#63b8ff" d="M317.14,-57.24C307.63,-44.97 295.41,-29.21 287.89,-19.52"/>
<polygon fill="#63b8ff" stroke="#63b8ff" points="314.23,-59.2 323.12,-64.96 319.76,-54.91 314.23,-59.2"/>
</a>
</g>
</g>
<!-- Node16 -->
<g id="node7" class="node">
<title>Node16</title>
<g id="a_node7"><a xlink:title=" ">
<polygon fill="white" stroke="#666666" points="470,-85.75 394,-85.75 394,-66.5 470,-66.5 470,-85.75"/>
<text text-anchor="middle" x="432" y="-71.3" font-family="Arial" font-size="11.00">Templ&lt; int &gt;</text>
</a>
</g>
</g>
<!-- Node16&#45;&gt;Node9 -->
<g id="edge6" class="edge">
<title>Node16&#45;&gt;Node9</title>
<g id="a_edge6"><a xlink:title=" ">
<path fill="none" stroke="#63b8ff" d="M400.12,-61.51C370.64,-48.92 327.67,-30.56 302.21,-19.68"/>
<polygon fill="#63b8ff" stroke="#63b8ff" points="398.72,-64.72 409.29,-65.43 401.47,-58.28 398.72,-64.72"/>
</a>
</g>
</g>
<!-- Node17 -->
<g id="node8" class="node">
<title>Node17</title>
<g id="a_node8"><a xlink:title=" ">
<polygon fill="white" stroke="#666666" points="467.75,-152.25 396.25,-152.25 396.25,-133 467.75,-133 467.75,-152.25"/>
<text text-anchor="middle" x="432" y="-137.8" font-family="Arial" font-size="11.00">Templ&lt; T &gt;</text>
</a>
</g>
</g>
<!-- Node17&#45;&gt;Node16 -->
<g id="edge7" class="edge">
<title>Node17&#45;&gt;Node16</title>
<g id="a_edge7"><a xlink:title=" ">
<path fill="none" stroke="orange" stroke-dasharray="5,2" d="M432,-121.15C432,-109.32 432,-95.04 432,-86.02"/>
<polygon fill="orange" stroke="orange" points="428.5,-121.14 432,-131.14 435.5,-121.14 428.5,-121.14"/>
</a>
</g>
<text text-anchor="middle" x="447.38" y="-104.55" font-family="Arial" font-size="11.00" fill="grey">&lt; int &gt;</text>
</g>
<!-- Node18 -->
<g id="node9" class="node">
<title>Node18</title>
<g id="a_node9"><a xlink:title=" ">
<polygon fill="white" stroke="#666666" points="529.75,-85.75 488.25,-85.75 488.25,-66.5 529.75,-66.5 529.75,-85.75"/>
<text text-anchor="middle" x="509" y="-71.3" font-family="Arial" font-size="11.00">Used</text>
</a>
</g>
</g>
<!-- Node18&#45;&gt;Node9 -->
<g id="edge8" class="edge">
<title>Node18&#45;&gt;Node9</title>
<g id="a_edge8"><a xlink:title=" ">
<path fill="none" stroke="#9a32cd" stroke-dasharray="5,2" d="M477.11,-65.97C411.74,-47.37 346.8,-29.09 310.2,-18.82"/>
<polygon fill="#9a32cd" stroke="#9a32cd" points="475.99,-69.29 486.57,-68.67 477.91,-62.56 475.99,-69.29"/>
</a>
</g>
<text text-anchor="middle" x="445.62" y="-38.05" font-family="Arial" font-size="11.00" fill="grey">m_usedClass</text>
</g>
</g>
</svg>
