<?xml version="1.0" encoding="UTF-8" standalone="no"?>
<!DOCTYPE svg PUBLIC "-//W3C//DTD SVG 1.1//EN"
 "http://www.w3.org/Graphics/SVG/1.1/DTD/svg11.dtd">
<!-- Generated by graphviz version 10.0.1 (0)
 -->
<!-- Title: Graphical Class Hierarchy Pages: 1 -->
<svg width="420pt" height="235pt"
 viewBox="0.00 0.00 419.75 234.50" xmlns="http://www.w3.org/2000/svg" xmlns:xlink="http://www.w3.org/1999/xlink">
<g id="graph0" class="graph" transform="scale(1 1) rotate(0) translate(4 230.5)">
<title>Graphical Class Hierarchy</title>
<!-- Node0 -->
<g id="Node000000" class="node">
<title>Node0</title>
<g id="a_Node000000"><a xlink:title=" ">
<polygon fill="#e0e0e0" stroke="#999999" points="59.5,-122.88 0,-122.88 0,-103.62 59.5,-103.62 59.5,-122.88"/>
<text text-anchor="middle" x="29.75" y="-108.42" font-family="Arial" font-size="11.00">formatter</text>
</a>
</g>
</g>
<!-- Node1 -->
<g id="Node000001" class="node">
<title>Node1</title>
<g id="a_Node000001"><a xlink:href="db/d58/structwinapi_1_1utility_1_1basic__ostream__formatter.html" target="_top" xlink:title=" ">
<polygon fill="white" stroke="#666666" points="258.5,-122.88 95.5,-122.88 95.5,-103.62 258.5,-103.62 258.5,-122.88"/>
<text text-anchor="middle" x="177" y="-108.42" font-family="Arial" font-size="11.00">basic_ostream_formatter&lt; C &gt;</text>
</a>
</g>
</g>
<!-- Node0&#45;&gt;Node1 -->
<g id="edge4_Node000000_Node000001" class="edge">
<title>Node0&#45;&gt;Node1</title>
<g id="a_edge4_Node000000_Node000001"><a xlink:title=" ">
<path fill="none" stroke="#63b8ff" d="M71.16,-113.25C78.75,-113.25 86.92,-113.25 95.23,-113.25"/>
<polygon fill="#63b8ff" stroke="#63b8ff" points="71.31,-109.75 61.31,-113.25 71.31,-116.75 71.31,-109.75"/>
</a>
</g>
</g>
<!-- Node2 -->
<g id="Node000002" class="node">
<title>Node2</title>
<g id="a_Node000002"><a xlink:href="d2/dac/structfmt_1_1formatter_3_01winapi_1_1Function_01_4.html" target="_top" xlink:title=" ">
<polygon fill="white" stroke="#666666" points="406.12,-226.5 300.12,-226.5 300.12,-196 406.12,-196 406.12,-226.5"/>
<text text-anchor="start" x="308.12" y="-212.05" font-family="Arial" font-size="11.00">formatter&lt; winapi::</text>
<text text-anchor="middle" x="353.12" y="-200.8" font-family="Arial" font-size="11.00">Function &gt;</text>
</a>
</g>
</g>
<!-- Node1&#45;&gt;Node2 -->
<g id="edge5_Node000001_Node000002" class="edge">
<title>Node1&#45;&gt;Node2</title>
<g id="a_edge5_Node000001_Node000002"><a xlink:title=" ">
<path fill="none" stroke="#63b8ff" d="M201.62,-129.53C224.73,-145.09 261.2,-168.72 294.5,-186.25 300.58,-189.45 307.16,-192.59 313.62,-195.5"/>
<polygon fill="#63b8ff" stroke="#63b8ff" points="203.79,-126.77 193.55,-124.04 199.85,-132.56 203.79,-126.77"/>
</a>
</g>
</g>
<!-- Node3 -->
<g id="Node000003" class="node">
<title>Node3</title>
<g id="a_Node000003"><a xlink:href="dd/daa/structfmt_1_1formatter_3_01winapi_1_1Handle_01_4.html" target="_top" xlink:title=" ">
<polygon fill="white" stroke="#666666" points="406.12,-177.5 300.12,-177.5 300.12,-147 406.12,-147 406.12,-177.5"/>
<text text-anchor="start" x="308.12" y="-163.05" font-family="Arial" font-size="11.00">formatter&lt; winapi::</text>
<text text-anchor="middle" x="353.12" y="-151.8" font-family="Arial" font-size="11.00">Handle &gt;</text>
</a>
</g>
</g>
<!-- Node1&#45;&gt;Node3 -->
<g id="edge6_Node000001_Node000003" class="edge">
<title>Node1&#45;&gt;Node3</title>
<g id="a_edge6_Node000001_Node000003"><a xlink:title=" ">
<path fill="none" stroke="#63b8ff" d="M224.58,-126.36C247.72,-132.87 275.77,-140.76 299.66,-147.49"/>
<polygon fill="#63b8ff" stroke="#63b8ff" points="225.69,-123.03 215.11,-123.69 223.79,-129.77 225.69,-123.03"/>
</a>
</g>
</g>
<!-- Node4 -->
<g id="Node000004" class="node">
<title>Node4</title>
<g id="a_Node000004"><a xlink:href="d3/df8/structfmt_1_1formatter_3_01winapi_1_1MemoryAddress_01_4.html" target="_top" xlink:title=" ">
<polygon fill="white" stroke="#666666" points="406.12,-128.5 300.12,-128.5 300.12,-98 406.12,-98 406.12,-128.5"/>
<text text-anchor="start" x="308.12" y="-114.05" font-family="Arial" font-size="11.00">formatter&lt; winapi::</text>
<text text-anchor="middle" x="353.12" y="-102.8" font-family="Arial" font-size="11.00">MemoryAddress &gt;</text>
</a>
</g>
</g>
<!-- Node1&#45;&gt;Node4 -->
<g id="edge7_Node000001_Node000004" class="edge">
<title>Node1&#45;&gt;Node4</title>
<g id="a_edge7_Node000001_Node000004"><a xlink:title=" ">
<path fill="none" stroke="#63b8ff" d="M270.33,-113.25C280.4,-113.25 290.38,-113.25 299.72,-113.25"/>
<polygon fill="#63b8ff" stroke="#63b8ff" points="270.46,-109.75 260.46,-113.25 270.46,-116.75 270.46,-109.75"/>
</a>
</g>
</g>
<!-- Node5 -->
<g id="Node000005" class="node">
<title>Node5</title>
<g id="a_Node000005"><a xlink:href="dc/d79/structfmt_1_1formatter_3_01winapi_1_1th32_1_1ModuleEntry_01_4.html" target="_top" xlink:title=" ">
<polygon fill="white" stroke="#666666" points="409.88,-79.5 296.38,-79.5 296.38,-49 409.88,-49 409.88,-79.5"/>
<text text-anchor="start" x="304.38" y="-65.05" font-family="Arial" font-size="11.00">formatter&lt; winapi::</text>
<text text-anchor="middle" x="353.12" y="-53.8" font-family="Arial" font-size="11.00">th32::ModuleEntry &gt;</text>
</a>
</g>
</g>
<!-- Node1&#45;&gt;Node5 -->
<g id="edge8_Node000001_Node000005" class="edge">
<title>Node1&#45;&gt;Node5</title>
<g id="a_edge8_Node000001_Node000005"><a xlink:title=" ">
<path fill="none" stroke="#63b8ff" d="M224.73,-100.1C246.76,-93.9 273.21,-86.46 296.29,-79.96"/>
<polygon fill="#63b8ff" stroke="#63b8ff" points="223.79,-96.73 215.11,-102.81 225.69,-103.47 223.79,-96.73"/>
</a>
</g>
</g>
<!-- Node6 -->
<g id="Node000006" class="node">
<title>Node6</title>
<g id="a_Node000006"><a xlink:href="d1/d78/structfmt_1_1formatter_3_01winapi_1_1th32_1_1ProcessEntry_01_4.html" target="_top" xlink:title=" ">
<polygon fill="white" stroke="#666666" points="411.75,-30.5 294.5,-30.5 294.5,0 411.75,0 411.75,-30.5"/>
<text text-anchor="start" x="302.5" y="-16.05" font-family="Arial" font-size="11.00">formatter&lt; winapi::</text>
<text text-anchor="middle" x="353.12" y="-4.8" font-family="Arial" font-size="11.00">th32::ProcessEntry &gt;</text>
</a>
</g>
</g>
<!-- Node1&#45;&gt;Node6 -->
<g id="edge9_Node000001_Node000006" class="edge">
<title>Node1&#45;&gt;Node6</title>
<g id="a_edge9_Node000001_Node000006"><a xlink:title=" ">
<path fill="none" stroke="#63b8ff" d="M201.62,-96.97C224.73,-81.41 261.2,-57.78 294.5,-40.25 300.58,-37.05 307.16,-33.91 313.62,-31"/>
<polygon fill="#63b8ff" stroke="#63b8ff" points="199.85,-93.94 193.55,-102.46 203.79,-99.73 199.85,-93.94"/>
</a>
</g>
</g>
</g>
</svg>
