<?xml version="1.0" encoding="UTF-8" standalone="no"?>
<!DOCTYPE svg PUBLIC "-//W3C//DTD SVG 1.1//EN"
 "http://www.w3.org/Graphics/SVG/1.1/DTD/svg11.dtd">
<!-- Generated by graphviz version 10.0.1 (0)
 -->
<!-- Title: Graphical Class Hierarchy Pages: 1 -->
<svg width="208pt" height="64pt"
 viewBox="0.00 0.00 208.00 64.25" xmlns="http://www.w3.org/2000/svg" xmlns:xlink="http://www.w3.org/1999/xlink">
<g id="graph0" class="graph" transform="scale(1 1) rotate(0) translate(4 60.25)">
<title>Graphical Class Hierarchy</title>
<!-- Node0 -->
<g id="Node000000" class="node">
<title>Node0</title>
<g id="a_Node000000"><a xlink:href="db/d87/structwinapi_1_1detail_1_1PointerLike.html" target="_top" xlink:title=" ">
<polygon fill="white" stroke="#666666" points="69.25,-37.25 0,-37.25 0,-18 69.25,-18 69.25,-37.25"/>
<text text-anchor="middle" x="34.62" y="-22.8" font-family="Arial" font-size="11.00">PointerLike</text>
</a>
</g>
</g>
<!-- Node1 -->
<g id="Node000001" class="node">
<title>Node1</title>
<g id="a_Node000001"><a xlink:href="dd/d5e/structwinapi_1_1Handle.html" target="_top" xlink:title=" ">
<polygon fill="white" stroke="#666666" points="177.5,-56.25 127.75,-56.25 127.75,-37 177.5,-37 177.5,-56.25"/>
<text text-anchor="middle" x="152.62" y="-41.8" font-family="Arial" font-size="11.00">Handle</text>
</a>
</g>
</g>
<!-- Node0&#45;&gt;Node1 -->
<g id="edge9_Node000000_Node000001" class="edge">
<title>Node0&#45;&gt;Node1</title>
<g id="a_edge9_Node000000_Node000001"><a xlink:title=" ">
<path fill="none" stroke="#63b8ff" d="M80.77,-35.02C96.69,-37.63 113.98,-40.46 127.49,-42.67"/>
<polygon fill="#63b8ff" stroke="#63b8ff" points="81.42,-31.58 70.98,-33.42 80.29,-38.49 81.42,-31.58"/>
</a>
</g>
</g>
<!-- Node2 -->
<g id="Node000002" class="node">
<title>Node2</title>
<g id="a_Node000002"><a xlink:href="d7/d70/classwinapi_1_1MemoryAddress.html" target="_top" xlink:title=" ">
<polygon fill="white" stroke="#666666" points="200,-19.25 105.25,-19.25 105.25,0 200,0 200,-19.25"/>
<text text-anchor="middle" x="152.62" y="-4.8" font-family="Arial" font-size="11.00">MemoryAddress</text>
</a>
</g>
</g>
<!-- Node0&#45;&gt;Node2 -->
<g id="edge10_Node000000_Node000002" class="edge">
<title>Node0&#45;&gt;Node2</title>
<g id="a_edge10_Node000000_Node000002"><a xlink:title=" ">
<path fill="none" stroke="#63b8ff" d="M80.81,-20.61C88.75,-19.38 97.02,-18.1 105,-16.86"/>
<polygon fill="#63b8ff" stroke="#63b8ff" points="80.33,-17.15 70.98,-22.14 81.4,-24.06 80.33,-17.15"/>
</a>
</g>
</g>
</g>
</svg>
