<?xml version="1.0" encoding="UTF-8" standalone="no"?>
<!DOCTYPE svg PUBLIC "-//W3C//DTD SVG 1.1//EN"
 "http://www.w3.org/Graphics/SVG/1.1/DTD/svg11.dtd">
<!-- Generated by graphviz version 10.0.1 (0)
 -->
<!-- Title: Graphical Class Hierarchy Pages: 1 -->
<svg width="208pt" height="138pt"
 viewBox="0.00 0.00 208.00 138.25" xmlns="http://www.w3.org/2000/svg" xmlns:xlink="http://www.w3.org/1999/xlink">
<g id="graph0" class="graph" transform="scale(1 1) rotate(0) translate(4 134.25)">
<title>Graphical Class Hierarchy</title>
<!-- Node0 -->
<g id="Node000000" class="node">
<title>Node0</title>
<g id="a_Node000000"><a xlink:href="db/d87/structwinapi_1_1detail_1_1PointerLike.html" target="_top" xlink:title=" ">
<polygon fill="white" stroke="#666666" points="69.25,-74.25 0,-74.25 0,-55 69.25,-55 69.25,-74.25"/>
<text text-anchor="middle" x="34.62" y="-59.8" font-family="Arial" font-size="11.00">PointerLike</text>
</a>
</g>
</g>
<!-- Node1 -->
<g id="Node000001" class="node">
<title>Node1</title>
<g id="a_Node000001"><a xlink:href="dd/de8/classwinapi_1_1Function.html" target="_top" xlink:title=" ">
<polygon fill="white" stroke="#666666" points="180.88,-130.25 124.38,-130.25 124.38,-111 180.88,-111 180.88,-130.25"/>
<text text-anchor="middle" x="152.62" y="-115.8" font-family="Arial" font-size="11.00">Function</text>
</a>
</g>
</g>
<!-- Node0&#45;&gt;Node1 -->
<g id="edge12_Node000000_Node000001" class="edge">
<title>Node0&#45;&gt;Node1</title>
<g id="a_edge12_Node000000_Node000001"><a xlink:title=" ">
<path fill="none" stroke="#63b8ff" d="M62.44,-80.32C75.21,-87.52 90.81,-95.92 105.25,-102.62 111.2,-105.39 117.71,-108.1 123.91,-110.54"/>
<polygon fill="#63b8ff" stroke="#63b8ff" points="64.21,-77.3 53.79,-75.37 60.74,-83.37 64.21,-77.3"/>
</a>
</g>
</g>
<!-- Node2 -->
<g id="Node000002" class="node">
<title>Node2</title>
<g id="a_Node000002"><a xlink:href="dd/d5e/structwinapi_1_1Handle.html" target="_top" xlink:title=" ">
<polygon fill="white" stroke="#666666" points="177.5,-93.25 127.75,-93.25 127.75,-74 177.5,-74 177.5,-93.25"/>
<text text-anchor="middle" x="152.62" y="-78.8" font-family="Arial" font-size="11.00">Handle</text>
</a>
</g>
</g>
<!-- Node0&#45;&gt;Node2 -->
<g id="edge13_Node000000_Node000002" class="edge">
<title>Node0&#45;&gt;Node2</title>
<g id="a_edge13_Node000000_Node000002"><a xlink:title=" ">
<path fill="none" stroke="#63b8ff" d="M80.77,-72.02C96.69,-74.63 113.98,-77.46 127.49,-79.67"/>
<polygon fill="#63b8ff" stroke="#63b8ff" points="81.42,-68.58 70.98,-70.42 80.29,-75.49 81.42,-68.58"/>
</a>
</g>
</g>
<!-- Node3 -->
<g id="Node000003" class="node">
<title>Node3</title>
<g id="a_Node000003"><a xlink:href="d5/d02/structwinapi_1_1HandleView.html" target="_top" xlink:title=" ">
<polygon fill="white" stroke="#666666" points="189.5,-56.25 115.75,-56.25 115.75,-37 189.5,-37 189.5,-56.25"/>
<text text-anchor="middle" x="152.62" y="-41.8" font-family="Arial" font-size="11.00">HandleView</text>
</a>
</g>
</g>
<!-- Node0&#45;&gt;Node3 -->
<g id="edge14_Node000000_Node000003" class="edge">
<title>Node0&#45;&gt;Node3</title>
<g id="a_edge14_Node000000_Node000003"><a xlink:title=" ">
<path fill="none" stroke="#63b8ff" d="M80.71,-57.63C92.23,-55.84 104.48,-53.94 115.49,-52.23"/>
<polygon fill="#63b8ff" stroke="#63b8ff" points="80.33,-54.15 70.98,-59.14 81.4,-61.06 80.33,-54.15"/>
</a>
</g>
</g>
<!-- Node4 -->
<g id="Node000004" class="node">
<title>Node4</title>
<g id="a_Node000004"><a xlink:href="d7/d70/classwinapi_1_1MemoryAddress.html" target="_top" xlink:title=" ">
<polygon fill="white" stroke="#666666" points="200,-19.25 105.25,-19.25 105.25,0 200,0 200,-19.25"/>
<text text-anchor="middle" x="152.62" y="-4.8" font-family="Arial" font-size="11.00">MemoryAddress</text>
</a>
</g>
</g>
<!-- Node0&#45;&gt;Node4 -->
<g id="edge15_Node000000_Node000004" class="edge">
<title>Node0&#45;&gt;Node4</title>
<g id="a_edge15_Node000000_Node000004"><a xlink:title=" ">
<path fill="none" stroke="#63b8ff" d="M63.01,-49.11C75.69,-42.18 91.05,-34.12 105.25,-27.62 111.37,-24.82 118.07,-22.05 124.43,-19.56"/>
<polygon fill="#63b8ff" stroke="#63b8ff" points="61.45,-45.97 54.4,-53.88 64.85,-52.09 61.45,-45.97"/>
</a>
</g>
</g>
</g>
</svg>
