<?xml version="1.0" encoding="UTF-8" standalone="no"?>
<!DOCTYPE svg PUBLIC "-//W3C//DTD SVG 1.1//EN"
 "http://www.w3.org/Graphics/SVG/1.1/DTD/svg11.dtd">
<!-- Generated by graphviz version 10.0.1 (0)
 -->
<!-- Title: Graphical Class Hierarchy Pages: 1 -->
<svg width="420pt" height="284pt"
 viewBox="0.00 0.00 419.75 283.50" xmlns="http://www.w3.org/2000/svg" xmlns:xlink="http://www.w3.org/1999/xlink">
<g id="graph0" class="graph" transform="scale(1 1) rotate(0) translate(4 279.5)">
<title>Graphical Class Hierarchy</title>
<!-- Node0 -->
<g id="Node000000" class="node">
<title>Node0</title>
<g id="a_Node000000"><a xlink:title=" ">
<polygon fill="#e0e0e0" stroke="#999999" points="59.5,-146.88 0,-146.88 0,-127.62 59.5,-127.62 59.5,-146.88"/>
<text text-anchor="middle" x="29.75" y="-132.43" font-family="Arial" font-size="11.00">formatter</text>
</a>
</g>
</g>
<!-- Node1 -->
<g id="Node000001" class="node">
<title>Node1</title>
<g id="a_Node000001"><a xlink:href="db/d58/structwinapi_1_1utility_1_1basic__ostream__formatter.html" target="_top" xlink:title=" ">
<polygon fill="white" stroke="#666666" points="258.5,-146.88 95.5,-146.88 95.5,-127.62 258.5,-127.62 258.5,-146.88"/>
<text text-anchor="middle" x="177" y="-132.43" font-family="Arial" font-size="11.00">basic_ostream_formatter&lt; C &gt;</text>
</a>
</g>
</g>
<!-- Node0&#45;&gt;Node1 -->
<g id="edge4_Node000000_Node000001" class="edge">
<title>Node0&#45;&gt;Node1</title>
<g id="a_edge4_Node000000_Node000001"><a xlink:title=" ">
<path fill="none" stroke="#63b8ff" d="M71.16,-137.25C78.75,-137.25 86.92,-137.25 95.23,-137.25"/>
<polygon fill="#63b8ff" stroke="#63b8ff" points="71.31,-133.75 61.31,-137.25 71.31,-140.75 71.31,-133.75"/>
</a>
</g>
</g>
<!-- Node2 -->
<g id="Node000002" class="node">
<title>Node2</title>
<g id="a_Node000002"><a xlink:href="d2/dac/structfmt_1_1formatter_3_01winapi_1_1Function_01_4.html" target="_top" xlink:title=" ">
<polygon fill="white" stroke="#666666" points="406.12,-275.5 300.12,-275.5 300.12,-245 406.12,-245 406.12,-275.5"/>
<text text-anchor="start" x="308.12" y="-261.05" font-family="Arial" font-size="11.00">formatter&lt; winapi::</text>
<text text-anchor="middle" x="353.12" y="-249.8" font-family="Arial" font-size="11.00">Function &gt;</text>
</a>
</g>
</g>
<!-- Node1&#45;&gt;Node2 -->
<g id="edge5_Node000001_Node000002" class="edge">
<title>Node1&#45;&gt;Node2</title>
<g id="a_edge5_Node000001_Node000002"><a xlink:title=" ">
<path fill="none" stroke="#63b8ff" d="M195.82,-155.13C217.63,-176.3 256.38,-211.65 294.5,-235.25 299.97,-238.64 305.98,-241.79 311.99,-244.64"/>
<polygon fill="#63b8ff" stroke="#63b8ff" points="198.48,-152.83 188.89,-148.32 193.57,-157.83 198.48,-152.83"/>
</a>
</g>
</g>
<!-- Node3 -->
<g id="Node000003" class="node">
<title>Node3</title>
<g id="a_Node000003"><a xlink:href="dd/daa/structfmt_1_1formatter_3_01winapi_1_1Handle_01_4.html" target="_top" xlink:title=" ">
<polygon fill="white" stroke="#666666" points="406.12,-226.5 300.12,-226.5 300.12,-196 406.12,-196 406.12,-226.5"/>
<text text-anchor="start" x="308.12" y="-212.05" font-family="Arial" font-size="11.00">formatter&lt; winapi::</text>
<text text-anchor="middle" x="353.12" y="-200.8" font-family="Arial" font-size="11.00">Handle &gt;</text>
</a>
</g>
</g>
<!-- Node1&#45;&gt;Node3 -->
<g id="edge6_Node000001_Node000003" class="edge">
<title>Node1&#45;&gt;Node3</title>
<g id="a_edge6_Node000001_Node000003"><a xlink:title=" ">
<path fill="none" stroke="#63b8ff" d="M211.78,-151.61C241.53,-164.25 284.76,-182.62 315.37,-195.63"/>
<polygon fill="#63b8ff" stroke="#63b8ff" points="213.45,-148.51 202.88,-147.82 210.71,-154.95 213.45,-148.51"/>
</a>
</g>
</g>
<!-- Node4 -->
<g id="Node000004" class="node">
<title>Node4</title>
<g id="a_Node000004"><a xlink:href="d3/df8/structfmt_1_1formatter_3_01winapi_1_1MemoryAddress_01_4.html" target="_top" xlink:title=" ">
<polygon fill="white" stroke="#666666" points="406.12,-177.5 300.12,-177.5 300.12,-147 406.12,-147 406.12,-177.5"/>
<text text-anchor="start" x="308.12" y="-163.05" font-family="Arial" font-size="11.00">formatter&lt; winapi::</text>
<text text-anchor="middle" x="353.12" y="-151.8" font-family="Arial" font-size="11.00">MemoryAddress &gt;</text>
</a>
</g>
</g>
<!-- Node1&#45;&gt;Node4 -->
<g id="edge7_Node000001_Node000004" class="edge">
<title>Node1&#45;&gt;Node4</title>
<g id="a_edge7_Node000001_Node000004"><a xlink:title=" ">
<path fill="none" stroke="#63b8ff" d="M259.7,-148.98C273.32,-150.94 287.12,-152.92 299.75,-154.73"/>
<polygon fill="#63b8ff" stroke="#63b8ff" points="260.22,-145.52 249.82,-147.56 259.22,-152.45 260.22,-145.52"/>
</a>
</g>
</g>
<!-- Node5 -->
<g id="Node000005" class="node">
<title>Node5</title>
<g id="a_Node000005"><a xlink:href="d4/dd3/structfmt_1_1formatter_3_01winapi_1_1PID_01_4.html" target="_top" xlink:title="Custom formatter for PID type (fmt library).">
<polygon fill="white" stroke="#666666" points="406.12,-128.5 300.12,-128.5 300.12,-98 406.12,-98 406.12,-128.5"/>
<text text-anchor="start" x="308.12" y="-114.05" font-family="Arial" font-size="11.00">formatter&lt; winapi::</text>
<text text-anchor="middle" x="353.12" y="-102.8" font-family="Arial" font-size="11.00">PID &gt;</text>
</a>
</g>
</g>
<!-- Node1&#45;&gt;Node5 -->
<g id="edge8_Node000001_Node000005" class="edge">
<title>Node1&#45;&gt;Node5</title>
<g id="a_edge8_Node000001_Node000005"><a xlink:title=" ">
<path fill="none" stroke="#63b8ff" d="M262.47,-125.61C275.19,-123.85 287.98,-122.09 299.75,-120.47"/>
<polygon fill="#63b8ff" stroke="#63b8ff" points="262.27,-122.1 252.84,-126.93 263.22,-129.04 262.27,-122.1"/>
</a>
</g>
</g>
<!-- Node6 -->
<g id="Node000006" class="node">
<title>Node6</title>
<g id="a_Node000006"><a xlink:href="dc/d79/structfmt_1_1formatter_3_01winapi_1_1th32_1_1ModuleEntry_01_4.html" target="_top" xlink:title=" ">
<polygon fill="white" stroke="#666666" points="409.88,-79.5 296.38,-79.5 296.38,-49 409.88,-49 409.88,-79.5"/>
<text text-anchor="start" x="304.38" y="-65.05" font-family="Arial" font-size="11.00">formatter&lt; winapi::</text>
<text text-anchor="middle" x="353.12" y="-53.8" font-family="Arial" font-size="11.00">th32::ModuleEntry &gt;</text>
</a>
</g>
</g>
<!-- Node1&#45;&gt;Node6 -->
<g id="edge9_Node000001_Node000006" class="edge">
<title>Node1&#45;&gt;Node6</title>
<g id="a_edge9_Node000001_Node000006"><a xlink:title=" ">
<path fill="none" stroke="#63b8ff" d="M212.1,-122.95C241.68,-110.55 284.41,-92.64 314.88,-79.87"/>
<polygon fill="#63b8ff" stroke="#63b8ff" points="211.11,-119.57 203.24,-126.67 213.82,-126.03 211.11,-119.57"/>
</a>
</g>
</g>
<!-- Node7 -->
<g id="Node000007" class="node">
<title>Node7</title>
<g id="a_Node000007"><a xlink:href="d1/d78/structfmt_1_1formatter_3_01winapi_1_1th32_1_1ProcessEntry_01_4.html" target="_top" xlink:title=" ">
<polygon fill="white" stroke="#666666" points="411.75,-30.5 294.5,-30.5 294.5,0 411.75,0 411.75,-30.5"/>
<text text-anchor="start" x="302.5" y="-16.05" font-family="Arial" font-size="11.00">formatter&lt; winapi::</text>
<text text-anchor="middle" x="353.12" y="-4.8" font-family="Arial" font-size="11.00">th32::ProcessEntry &gt;</text>
</a>
</g>
</g>
<!-- Node1&#45;&gt;Node7 -->
<g id="edge10_Node000001_Node000007" class="edge">
<title>Node1&#45;&gt;Node7</title>
<g id="a_edge10_Node000001_Node000007"><a xlink:title=" ">
<path fill="none" stroke="#63b8ff" d="M195.85,-119.57C217.7,-98.63 256.48,-63.65 294.5,-40.25 299.98,-36.88 305.99,-33.73 312.01,-30.89"/>
<polygon fill="#63b8ff" stroke="#63b8ff" points="193.66,-116.82 188.92,-126.3 198.53,-121.84 193.66,-116.82"/>
</a>
</g>
</g>
</g>
</svg>
