<?xml version="1.0" encoding="UTF-8" standalone="no"?>
<!DOCTYPE svg PUBLIC "-//W3C//DTD SVG 1.1//EN"
 "http://www.w3.org/Graphics/SVG/1.1/DTD/svg11.dtd">
<!-- Generated by graphviz version 10.0.1 (0)
 -->
<!-- Title: Graphical Class Hierarchy Pages: 1 -->
<svg width="208pt" height="101pt"
 viewBox="0.00 0.00 208.00 101.25" xmlns="http://www.w3.org/2000/svg" xmlns:xlink="http://www.w3.org/1999/xlink">
<g id="graph0" class="graph" transform="scale(1 1) rotate(0) translate(4 97.25)">
<title>Graphical Class Hierarchy</title>
<!-- Node0 -->
<g id="Node000000" class="node">
<title>Node0</title>
<g id="a_Node000000"><a xlink:href="db/d87/structwinapi_1_1detail_1_1PointerLike.html" target="_top" xlink:title=" ">
<polygon fill="white" stroke="#666666" points="69.25,-56.25 0,-56.25 0,-37 69.25,-37 69.25,-56.25"/>
<text text-anchor="middle" x="34.62" y="-41.8" font-family="Arial" font-size="11.00">PointerLike</text>
</a>
</g>
</g>
<!-- Node1 -->
<g id="Node000001" class="node">
<title>Node1</title>
<g id="a_Node000001"><a xlink:href="dd/de8/classwinapi_1_1Function.html" target="_top" xlink:title=" ">
<polygon fill="white" stroke="#666666" points="180.88,-93.25 124.38,-93.25 124.38,-74 180.88,-74 180.88,-93.25"/>
<text text-anchor="middle" x="152.62" y="-78.8" font-family="Arial" font-size="11.00">Function</text>
</a>
</g>
</g>
<!-- Node0&#45;&gt;Node1 -->
<g id="edge11_Node000000_Node000001" class="edge">
<title>Node0&#45;&gt;Node1</title>
<g id="a_edge11_Node000000_Node000001"><a xlink:title=" ">
<path fill="none" stroke="#63b8ff" d="M78.11,-60.18C93.39,-65.05 110.22,-70.42 123.91,-74.79"/>
<polygon fill="#63b8ff" stroke="#63b8ff" points="79.36,-56.9 68.76,-57.2 77.23,-63.57 79.36,-56.9"/>
</a>
</g>
</g>
<!-- Node2 -->
<g id="Node000002" class="node">
<title>Node2</title>
<g id="a_Node000002"><a xlink:href="dd/d5e/structwinapi_1_1Handle.html" target="_top" xlink:title=" ">
<polygon fill="white" stroke="#666666" points="177.5,-56.25 127.75,-56.25 127.75,-37 177.5,-37 177.5,-56.25"/>
<text text-anchor="middle" x="152.62" y="-41.8" font-family="Arial" font-size="11.00">Handle</text>
</a>
</g>
</g>
<!-- Node0&#45;&gt;Node2 -->
<g id="edge12_Node000000_Node000002" class="edge">
<title>Node0&#45;&gt;Node2</title>
<g id="a_edge12_Node000000_Node000002"><a xlink:title=" ">
<path fill="none" stroke="#63b8ff" d="M80.77,-46.62C96.69,-46.62 113.98,-46.62 127.49,-46.62"/>
<polygon fill="#63b8ff" stroke="#63b8ff" points="81,-43.13 71,-46.63 81,-50.13 81,-43.13"/>
</a>
</g>
</g>
<!-- Node3 -->
<g id="Node000003" class="node">
<title>Node3</title>
<g id="a_Node000003"><a xlink:href="d7/d70/classwinapi_1_1MemoryAddress.html" target="_top" xlink:title=" ">
<polygon fill="white" stroke="#666666" points="200,-19.25 105.25,-19.25 105.25,0 200,0 200,-19.25"/>
<text text-anchor="middle" x="152.62" y="-4.8" font-family="Arial" font-size="11.00">MemoryAddress</text>
</a>
</g>
</g>
<!-- Node0&#45;&gt;Node3 -->
<g id="edge13_Node000000_Node000003" class="edge">
<title>Node0&#45;&gt;Node3</title>
<g id="a_edge13_Node000000_Node000003"><a xlink:title=" ">
<path fill="none" stroke="#63b8ff" d="M78.09,-33.08C91.93,-28.66 107.06,-23.84 119.97,-19.72"/>
<polygon fill="#63b8ff" stroke="#63b8ff" points="77.23,-29.68 68.76,-36.05 79.36,-36.35 77.23,-29.68"/>
</a>
</g>
</g>
</g>
</svg>
