<?xml version="1.0" encoding="UTF-8" standalone="no"?>
<!DOCTYPE svg PUBLIC "-//W3C//DTD SVG 1.1//EN"
 "http://www.w3.org/Graphics/SVG/1.1/DTD/svg11.dtd">
<!-- Generated by graphviz version 10.0.1 (0)
 -->
<!-- Title: windows_exception Pages: 1 -->
<svg width="118pt" height="138pt"
 viewBox="0.00 0.00 117.75 137.75" xmlns="http://www.w3.org/2000/svg" xmlns:xlink="http://www.w3.org/1999/xlink">
<g id="graph0" class="graph" transform="scale(1 1) rotate(0) translate(4 133.75)">
<title>windows_exception</title>
<!-- Node1 -->
<g id="Node000001" class="node">
<title>Node1</title>
<g id="a_Node000001"><a xlink:title=" ">
<polygon fill="#999999" stroke="#666666" points="109.75,-19.25 0,-19.25 0,0 109.75,0 109.75,-19.25"/>
<text text-anchor="middle" x="54.88" y="-4.8" font-family="Arial" font-size="11.00">windows_exception</text>
</a>
</g>
</g>
<!-- Node2 -->
<g id="Node000002" class="node">
<title>Node2</title>
<g id="a_Node000002"><a xlink:title=" ">
<polygon fill="white" stroke="#666666" points="95.5,-74.5 14.25,-74.5 14.25,-55.25 95.5,-55.25 95.5,-74.5"/>
<text text-anchor="middle" x="54.88" y="-60.05" font-family="Arial" font-size="11.00">runtime_error</text>
</a>
</g>
</g>
<!-- Node2&#45;&gt;Node1 -->
<g id="edge1_Node000001_Node000002" class="edge">
<title>Node2&#45;&gt;Node1</title>
<g id="a_edge1_Node000001_Node000002"><a xlink:title=" ">
<path fill="none" stroke="#63b8ff" d="M54.88,-43.63C54.88,-35.34 54.88,-26.17 54.88,-19.61"/>
<polygon fill="#63b8ff" stroke="#63b8ff" points="51.38,-43.57 54.88,-53.57 58.38,-43.57 51.38,-43.57"/>
</a>
</g>
</g>
<!-- Node3 -->
<g id="Node000003" class="node">
<title>Node3</title>
<g id="a_Node000003"><a xlink:title=" ">
<polygon fill="white" stroke="#666666" points="85.75,-129.75 24,-129.75 24,-110.5 85.75,-110.5 85.75,-129.75"/>
<text text-anchor="middle" x="54.88" y="-115.3" font-family="Arial" font-size="11.00">exception</text>
</a>
</g>
</g>
<!-- Node3&#45;&gt;Node2 -->
<g id="edge2_Node000002_Node000003" class="edge">
<title>Node3&#45;&gt;Node2</title>
<g id="a_edge2_Node000002_Node000003"><a xlink:title=" ">
<path fill="none" stroke="#63b8ff" d="M54.88,-98.88C54.88,-90.59 54.88,-81.42 54.88,-74.86"/>
<polygon fill="#63b8ff" stroke="#63b8ff" points="51.38,-98.82 54.88,-108.82 58.38,-98.82 51.38,-98.82"/>
</a>
</g>
</g>
</g>
</svg>
