<?xml version="1.0" encoding="UTF-8" standalone="no"?>
<!DOCTYPE svg PUBLIC "-//W3C//DTD SVG 1.1//EN"
 "http://www.w3.org/Graphics/SVG/1.1/DTD/svg11.dtd">
<!-- Generated by graphviz version 10.0.1 (0)
 -->
<!-- Title: Process Pages: 1 -->
<svg width="93pt" height="150pt"
 viewBox="0.00 0.00 92.88 150.00" xmlns="http://www.w3.org/2000/svg" xmlns:xlink="http://www.w3.org/1999/xlink">
<g id="graph0" class="graph" transform="scale(1 1) rotate(0) translate(4 146)">
<title>Process</title>
<!-- Node1 -->
<g id="Node000001" class="node">
<title>Node1</title>
<g id="a_Node000001"><a xlink:title=" ">
<polygon fill="#999999" stroke="#666666" points="62.12,-19.25 7.12,-19.25 7.12,0 62.12,0 62.12,-19.25"/>
<text text-anchor="middle" x="34.62" y="-4.8" font-family="Arial" font-size="11.00">Process</text>
</a>
</g>
</g>
<!-- Node2 -->
<g id="Node000002" class="node">
<title>Node2</title>
<g id="a_Node000002"><a xlink:href="../../dd/d5e/structwinapi_1_1Handle.html" target="_top" xlink:title=" ">
<polygon fill="white" stroke="#bfbfbf" points="59.5,-85.75 9.75,-85.75 9.75,-66.5 59.5,-66.5 59.5,-85.75"/>
<text text-anchor="middle" x="34.62" y="-71.3" font-family="Arial" font-size="11.00">Handle</text>
</a>
</g>
</g>
<!-- Node2&#45;&gt;Node1 -->
<g id="edge1_Node000001_Node000002" class="edge">
<title>Node2&#45;&gt;Node1</title>
<g id="a_edge1_Node000001_Node000002"><a xlink:title=" ">
<path fill="none" stroke="#9a32cd" stroke-dasharray="5,2" d="M34.62,-54.65C34.62,-42.82 34.62,-28.54 34.62,-19.52"/>
<polygon fill="#9a32cd" stroke="#9a32cd" points="31.13,-54.64 34.63,-64.64 38.13,-54.64 31.13,-54.64"/>
</a>
</g>
<text text-anchor="middle" x="59.75" y="-38.05" font-family="Arial" font-size="11.00" fill="grey"> m_handle</text>
</g>
<!-- Node3 -->
<g id="Node000003" class="node">
<title>Node3</title>
<g id="a_Node000003"><a xlink:href="../../db/d87/structwinapi_1_1detail_1_1PointerLike.html" target="_top" xlink:title=" ">
<polygon fill="white" stroke="#bfbfbf" points="69.25,-142 0,-142 0,-122.75 69.25,-122.75 69.25,-142"/>
<text text-anchor="middle" x="34.62" y="-127.55" font-family="Arial" font-size="11.00">PointerLike</text>
</a>
</g>
</g>
<!-- Node3&#45;&gt;Node2 -->
<g id="edge2_Node000002_Node000003" class="edge">
<title>Node3&#45;&gt;Node2</title>
<g id="a_edge2_Node000002_Node000003"><a xlink:title=" ">
<path fill="none" stroke="#63b8ff" d="M34.62,-111.19C34.62,-102.48 34.62,-92.74 34.62,-85.92"/>
<polygon fill="#63b8ff" stroke="#63b8ff" points="31.13,-110.9 34.63,-120.9 38.13,-110.9 31.13,-110.9"/>
</a>
</g>
</g>
</g>
</svg>
