<?xml version="1.0" encoding="UTF-8" standalone="no"?>
<!DOCTYPE svg PUBLIC "-//W3C//DTD SVG 1.1//EN"
 "http://www.w3.org/Graphics/SVG/1.1/DTD/svg11.dtd">
<!-- Generated by graphviz version 10.0.1 (0)
 -->
<!-- Title: basic_ostream_formatter&lt; C &gt; Pages: 1 -->
<svg width="488pt" height="186pt"
 viewBox="0.00 0.00 488.00 185.50" xmlns="http://www.w3.org/2000/svg" xmlns:xlink="http://www.w3.org/1999/xlink">
<g id="graph0" class="graph" transform="scale(1 1) rotate(0) translate(4 181.5)">
<title>basic_ostream_formatter&lt; C &gt;</title>
<!-- Node1 -->
<g id="Node000001" class="node">
<title>Node1</title>
<g id="a_Node000001"><a xlink:title=" ">
<polygon fill="#999999" stroke="#666666" points="326.75,-97.88 163.75,-97.88 163.75,-78.62 326.75,-78.62 326.75,-97.88"/>
<text text-anchor="middle" x="245.25" y="-83.42" font-family="Arial" font-size="11.00">basic_ostream_formatter&lt; C &gt;</text>
</a>
</g>
</g>
<!-- Node3 -->
<g id="Node000003" class="node">
<title>Node3</title>
<g id="a_Node000003"><a xlink:href="../../dd/daa/structfmt_1_1formatter_3_01winapi_1_1Handle_01_4.html" target="_top" xlink:title=" ">
<polygon fill="white" stroke="#bfbfbf" points="474.38,-177.5 368.38,-177.5 368.38,-147 474.38,-147 474.38,-177.5"/>
<text text-anchor="start" x="376.38" y="-163.05" font-family="Arial" font-size="11.00">formatter&lt; winapi::</text>
<text text-anchor="middle" x="421.38" y="-151.8" font-family="Arial" font-size="11.00">Handle &gt;</text>
</a>
</g>
</g>
<!-- Node1&#45;&gt;Node3 -->
<g id="edge2_Node000001_Node000003" class="edge">
<title>Node1&#45;&gt;Node3</title>
<g id="a_edge2_Node000001_Node000003"><a xlink:title=" ">
<path fill="none" stroke="#63b8ff" d="M280.03,-102.61C309.78,-115.25 353.01,-133.62 383.62,-146.63"/>
<polygon fill="#63b8ff" stroke="#63b8ff" points="281.7,-99.51 271.13,-98.82 278.96,-105.95 281.7,-99.51"/>
</a>
</g>
</g>
<!-- Node4 -->
<g id="Node000004" class="node">
<title>Node4</title>
<g id="a_Node000004"><a xlink:href="../../d3/df8/structfmt_1_1formatter_3_01winapi_1_1MemoryAddress_01_4.html" target="_top" xlink:title=" ">
<polygon fill="white" stroke="#bfbfbf" points="474.38,-128.5 368.38,-128.5 368.38,-98 474.38,-98 474.38,-128.5"/>
<text text-anchor="start" x="376.38" y="-114.05" font-family="Arial" font-size="11.00">formatter&lt; winapi::</text>
<text text-anchor="middle" x="421.38" y="-102.8" font-family="Arial" font-size="11.00">MemoryAddress &gt;</text>
</a>
</g>
</g>
<!-- Node1&#45;&gt;Node4 -->
<g id="edge3_Node000001_Node000004" class="edge">
<title>Node1&#45;&gt;Node4</title>
<g id="a_edge3_Node000001_Node000004"><a xlink:title=" ">
<path fill="none" stroke="#63b8ff" d="M327.95,-99.98C341.57,-101.94 355.37,-103.92 368,-105.73"/>
<polygon fill="#63b8ff" stroke="#63b8ff" points="328.47,-96.52 318.07,-98.56 327.47,-103.45 328.47,-96.52"/>
</a>
</g>
</g>
<!-- Node5 -->
<g id="Node000005" class="node">
<title>Node5</title>
<g id="a_Node000005"><a xlink:href="../../dc/d79/structfmt_1_1formatter_3_01winapi_1_1th32_1_1ModuleEntry_01_4.html" target="_top" xlink:title=" ">
<polygon fill="white" stroke="#bfbfbf" points="478.12,-79.5 364.62,-79.5 364.62,-49 478.12,-49 478.12,-79.5"/>
<text text-anchor="start" x="372.62" y="-65.05" font-family="Arial" font-size="11.00">formatter&lt; winapi::</text>
<text text-anchor="middle" x="421.38" y="-53.8" font-family="Arial" font-size="11.00">th32::ModuleEntry &gt;</text>
</a>
</g>
</g>
<!-- Node1&#45;&gt;Node5 -->
<g id="edge4_Node000001_Node000005" class="edge">
<title>Node1&#45;&gt;Node5</title>
<g id="a_edge4_Node000001_Node000005"><a xlink:title=" ">
<path fill="none" stroke="#63b8ff" d="M330.89,-76.58C342.23,-75.02 353.63,-73.45 364.32,-71.98"/>
<polygon fill="#63b8ff" stroke="#63b8ff" points="330.52,-73.1 321.09,-77.93 331.47,-80.04 330.52,-73.1"/>
</a>
</g>
</g>
<!-- Node6 -->
<g id="Node000006" class="node">
<title>Node6</title>
<g id="a_Node000006"><a xlink:href="../../d1/d78/structfmt_1_1formatter_3_01winapi_1_1th32_1_1ProcessEntry_01_4.html" target="_top" xlink:title=" ">
<polygon fill="white" stroke="#bfbfbf" points="480,-30.5 362.75,-30.5 362.75,0 480,0 480,-30.5"/>
<text text-anchor="start" x="370.75" y="-16.05" font-family="Arial" font-size="11.00">formatter&lt; winapi::</text>
<text text-anchor="middle" x="421.38" y="-4.8" font-family="Arial" font-size="11.00">th32::ProcessEntry &gt;</text>
</a>
</g>
</g>
<!-- Node1&#45;&gt;Node6 -->
<g id="edge5_Node000001_Node000006" class="edge">
<title>Node1&#45;&gt;Node6</title>
<g id="a_edge5_Node000001_Node000006"><a xlink:title=" ">
<path fill="none" stroke="#63b8ff" d="M280.35,-73.95C309.93,-61.55 352.66,-43.64 383.13,-30.87"/>
<polygon fill="#63b8ff" stroke="#63b8ff" points="279.36,-70.57 271.49,-77.67 282.07,-77.03 279.36,-70.57"/>
</a>
</g>
</g>
<!-- Node2 -->
<g id="Node000002" class="node">
<title>Node2</title>
<g id="a_Node000002"><a xlink:title=" ">
<polygon fill="white" stroke="#bfbfbf" points="127.75,-103.5 0,-103.5 0,-73 127.75,-73 127.75,-103.5"/>
<text text-anchor="start" x="8" y="-89.05" font-family="Arial" font-size="11.00">formatter&lt; std::basic</text>
<text text-anchor="middle" x="63.88" y="-77.8" font-family="Arial" font-size="11.00">_string_view&lt; C &gt;, C &gt;</text>
</a>
</g>
</g>
<!-- Node2&#45;&gt;Node1 -->
<g id="edge1_Node000001_Node000002" class="edge">
<title>Node2&#45;&gt;Node1</title>
<g id="a_edge1_Node000001_Node000002"><a xlink:title=" ">
<path fill="none" stroke="#63b8ff" d="M139.51,-88.25C147.38,-88.25 155.42,-88.25 163.36,-88.25"/>
<polygon fill="#63b8ff" stroke="#63b8ff" points="139.63,-84.75 129.63,-88.25 139.63,-91.75 139.63,-84.75"/>
</a>
</g>
</g>
</g>
</svg>
