<?xml version="1.0" encoding="UTF-8" standalone="no"?>
<!DOCTYPE svg PUBLIC "-//W3C//DTD SVG 1.1//EN"
 "http://www.w3.org/Graphics/SVG/1.1/DTD/svg11.dtd">
<!-- Generated by graphviz version 10.0.1 (0)
 -->
<!-- Title: basic_ostream_formatter&lt; C &gt; Pages: 1 -->
<svg width="488pt" height="137pt"
 viewBox="0.00 0.00 488.00 136.50" xmlns="http://www.w3.org/2000/svg" xmlns:xlink="http://www.w3.org/1999/xlink">

<svg id="main" version="1.1" xmlns="http://www.w3.org/2000/svg" xmlns:xlink="http://www.w3.org/1999/xlink" xml:space="preserve" onload="init(evt)">
<style type="text/css"><![CDATA[
.node, .edge {opacity: 0.7;}
.node.selected, .edge.selected {opacity: 1;}
.edge:hover path { stroke: red; }
.edge:hover polygon { stroke: red; fill: red; }
]]></style>
<script type="application/ecmascript" xlink:href="../../svg.min.js"/>
<svg id="graph" class="graph">
<g id="graph0" class="graph" transform="scale(1 1) rotate(0) translate(4 132.5)">
<title>basic_ostream_formatter&lt; C &gt;</title>
<!-- Node1 -->
<g id="Node000001" class="node">
<title>Node1</title>
<g id="a_Node000001"><a xlink:title=" ">
<polygon fill="#999999" stroke="#666666" points="326.75,-73.88 163.75,-73.88 163.75,-54.62 326.75,-54.62 326.75,-73.88"/>
<text text-anchor="middle" x="245.25" y="-59.42" font-family="Arial" font-size="11.00">basic_ostream_formatter&lt; C &gt;</text>
</a>
</g>
</g>
<!-- Node3 -->
<g id="Node000003" class="node">
<title>Node3</title>
<g id="a_Node000003"><a xlink:href="../../dd/daa/structfmt_1_1formatter_3_01winapi_1_1Handle_01_4.html" target="_top" xlink:title=" ">
<polygon fill="white" stroke="#bfbfbf" points="474.38,-128.5 368.38,-128.5 368.38,-98 474.38,-98 474.38,-128.5"/>
<text text-anchor="start" x="376.38" y="-114.05" font-family="Arial" font-size="11.00">formatter&lt; winapi::</text>
<text text-anchor="middle" x="421.38" y="-102.8" font-family="Arial" font-size="11.00">Handle &gt;</text>
</a>
</g>
</g>
<!-- Node1&#45;&gt;Node3 -->
<g id="edge2_Node000001_Node000003" class="edge">
<title>Node1&#45;&gt;Node3</title>
<g id="a_edge2_Node000001_Node000003"><a xlink:title=" ">
<path fill="none" stroke="#63b8ff" d="M292.83,-77.36C315.97,-83.87 344.02,-91.76 367.91,-98.49"/>
<polygon fill="#63b8ff" stroke="#63b8ff" points="293.94,-74.03 283.36,-74.69 292.04,-80.77 293.94,-74.03"/>
</a>
</g>
</g>
<!-- Node4 -->
<g id="Node000004" class="node">
<title>Node4</title>
<g id="a_Node000004"><a xlink:href="../../dc/d79/structfmt_1_1formatter_3_01winapi_1_1th32_1_1ModuleEntry_01_4.html" target="_top" xlink:title=" ">
<polygon fill="white" stroke="#bfbfbf" points="478.12,-79.5 364.62,-79.5 364.62,-49 478.12,-49 478.12,-79.5"/>
<text text-anchor="start" x="372.62" y="-65.05" font-family="Arial" font-size="11.00">formatter&lt; winapi::</text>
<text text-anchor="middle" x="421.38" y="-53.8" font-family="Arial" font-size="11.00">th32::ModuleEntry &gt;</text>
</a>
</g>
</g>
<!-- Node1&#45;&gt;Node4 -->
<g id="edge3_Node000001_Node000004" class="edge">
<title>Node1&#45;&gt;Node4</title>
<g id="a_edge3_Node000001_Node000004"><a xlink:title=" ">
<path fill="none" stroke="#63b8ff" d="M338.66,-64.25C347.37,-64.25 356.01,-64.25 364.23,-64.25"/>
<polygon fill="#63b8ff" stroke="#63b8ff" points="338.71,-60.75 328.71,-64.25 338.71,-67.75 338.71,-60.75"/>
</a>
</g>
</g>
<!-- Node5 -->
<g id="Node000005" class="node">
<title>Node5</title>
<g id="a_Node000005"><a xlink:href="../../d1/d78/structfmt_1_1formatter_3_01winapi_1_1th32_1_1ProcessEntry_01_4.html" target="_top" xlink:title=" ">
<polygon fill="white" stroke="#bfbfbf" points="480,-30.5 362.75,-30.5 362.75,0 480,0 480,-30.5"/>
<text text-anchor="start" x="370.75" y="-16.05" font-family="Arial" font-size="11.00">formatter&lt; winapi::</text>
<text text-anchor="middle" x="421.38" y="-4.8" font-family="Arial" font-size="11.00">th32::ProcessEntry &gt;</text>
</a>
</g>
</g>
<!-- Node1&#45;&gt;Node5 -->
<g id="edge4_Node000001_Node000005" class="edge">
<title>Node1&#45;&gt;Node5</title>
<g id="a_edge4_Node000001_Node000005"><a xlink:title=" ">
<path fill="none" stroke="#63b8ff" d="M292.98,-51.1C315.01,-44.9 341.46,-37.46 364.54,-30.96"/>
<polygon fill="#63b8ff" stroke="#63b8ff" points="292.04,-47.73 283.36,-53.81 293.94,-54.47 292.04,-47.73"/>
</a>
</g>
</g>
<!-- Node2 -->
<g id="Node000002" class="node">
<title>Node2</title>
<g id="a_Node000002"><a xlink:title=" ">
<polygon fill="white" stroke="#bfbfbf" points="127.75,-79.5 0,-79.5 0,-49 127.75,-49 127.75,-79.5"/>
<text text-anchor="start" x="8" y="-65.05" font-family="Arial" font-size="11.00">formatter&lt; std::basic</text>
<text text-anchor="middle" x="63.88" y="-53.8" font-family="Arial" font-size="11.00">_string_view&lt; C &gt;, C &gt;</text>
</a>
</g>
</g>
<!-- Node2&#45;&gt;Node1 -->
<g id="edge1_Node000001_Node000002" class="edge">
<title>Node2&#45;&gt;Node1</title>
<g id="a_edge1_Node000001_Node000002"><a xlink:title=" ">
<path fill="none" stroke="#63b8ff" d="M139.51,-64.25C147.38,-64.25 155.42,-64.25 163.36,-64.25"/>
<polygon fill="#63b8ff" stroke="#63b8ff" points="139.63,-60.75 129.63,-64.25 139.63,-67.75 139.63,-60.75"/>
</a>
</g>
</g>
</g>
</svg>
</svg>

<style type='text/css'>
<![CDATA[
[data-mouse-over-selected='false'] { opacity: 0.7; }
[data-mouse-over-selected='true']  { opacity: 1.0; }
]]>
</style>
<script type="application/ecmascript"><![CDATA[
document.addEventListener('DOMContentLoaded', (event) => {
  highlightEdges();
  highlightAdjacentNodes();
});
]]></script>
</svg>
