<?xml version="1.0" encoding="UTF-8" standalone="no"?>
<!DOCTYPE svg PUBLIC "-//W3C//DTD SVG 1.1//EN"
 "http://www.w3.org/Graphics/SVG/1.1/DTD/svg11.dtd">
<!-- Generated by graphviz version 10.0.1 (0)
 -->
<!-- Title: basic_ostream_formatter&lt; C &gt; Pages: 1 -->
<svg width="488pt" height="235pt"
 viewBox="0.00 0.00 488.00 234.50" xmlns="http://www.w3.org/2000/svg" xmlns:xlink="http://www.w3.org/1999/xlink">
<g id="graph0" class="graph" transform="scale(1 1) rotate(0) translate(4 230.5)">
<title>basic_ostream_formatter&lt; C &gt;</title>
<!-- Node1 -->
<g id="Node000001" class="node">
<title>Node1</title>
<g id="a_Node000001"><a xlink:title=" ">
<polygon fill="#999999" stroke="#666666" points="326.75,-122.88 163.75,-122.88 163.75,-103.62 326.75,-103.62 326.75,-122.88"/>
<text text-anchor="middle" x="245.25" y="-108.42" font-family="Arial" font-size="11.00">basic_ostream_formatter&lt; C &gt;</text>
</a>
</g>
</g>
<!-- Node3 -->
<g id="Node000003" class="node">
<title>Node3</title>
<g id="a_Node000003"><a xlink:href="../../d2/dac/structfmt_1_1formatter_3_01winapi_1_1Function_01_4.html" target="_top" xlink:title=" ">
<polygon fill="white" stroke="#bfbfbf" points="474.38,-226.5 368.38,-226.5 368.38,-196 474.38,-196 474.38,-226.5"/>
<text text-anchor="start" x="376.38" y="-212.05" font-family="Arial" font-size="11.00">formatter&lt; winapi::</text>
<text text-anchor="middle" x="421.38" y="-200.8" font-family="Arial" font-size="11.00">Function &gt;</text>
</a>
</g>
</g>
<!-- Node1&#45;&gt;Node3 -->
<g id="edge2_Node000001_Node000003" class="edge">
<title>Node1&#45;&gt;Node3</title>
<g id="a_edge2_Node000001_Node000003"><a xlink:title=" ">
<path fill="none" stroke="#63b8ff" d="M269.87,-129.53C292.98,-145.09 329.45,-168.72 362.75,-186.25 368.83,-189.45 375.41,-192.59 381.87,-195.5"/>
<polygon fill="#63b8ff" stroke="#63b8ff" points="272.04,-126.77 261.8,-124.04 268.1,-132.56 272.04,-126.77"/>
</a>
</g>
</g>
<!-- Node4 -->
<g id="Node000004" class="node">
<title>Node4</title>
<g id="a_Node000004"><a xlink:href="../../dd/daa/structfmt_1_1formatter_3_01winapi_1_1Handle_01_4.html" target="_top" xlink:title=" ">
<polygon fill="white" stroke="#bfbfbf" points="474.38,-177.5 368.38,-177.5 368.38,-147 474.38,-147 474.38,-177.5"/>
<text text-anchor="start" x="376.38" y="-163.05" font-family="Arial" font-size="11.00">formatter&lt; winapi::</text>
<text text-anchor="middle" x="421.38" y="-151.8" font-family="Arial" font-size="11.00">Handle &gt;</text>
</a>
</g>
</g>
<!-- Node1&#45;&gt;Node4 -->
<g id="edge3_Node000001_Node000004" class="edge">
<title>Node1&#45;&gt;Node4</title>
<g id="a_edge3_Node000001_Node000004"><a xlink:title=" ">
<path fill="none" stroke="#63b8ff" d="M292.83,-126.36C315.97,-132.87 344.02,-140.76 367.91,-147.49"/>
<polygon fill="#63b8ff" stroke="#63b8ff" points="293.94,-123.03 283.36,-123.69 292.04,-129.77 293.94,-123.03"/>
</a>
</g>
</g>
<!-- Node5 -->
<g id="Node000005" class="node">
<title>Node5</title>
<g id="a_Node000005"><a xlink:href="../../d3/df8/structfmt_1_1formatter_3_01winapi_1_1MemoryAddress_01_4.html" target="_top" xlink:title=" ">
<polygon fill="white" stroke="#bfbfbf" points="474.38,-128.5 368.38,-128.5 368.38,-98 474.38,-98 474.38,-128.5"/>
<text text-anchor="start" x="376.38" y="-114.05" font-family="Arial" font-size="11.00">formatter&lt; winapi::</text>
<text text-anchor="middle" x="421.38" y="-102.8" font-family="Arial" font-size="11.00">MemoryAddress &gt;</text>
</a>
</g>
</g>
<!-- Node1&#45;&gt;Node5 -->
<g id="edge4_Node000001_Node000005" class="edge">
<title>Node1&#45;&gt;Node5</title>
<g id="a_edge4_Node000001_Node000005"><a xlink:title=" ">
<path fill="none" stroke="#63b8ff" d="M338.58,-113.25C348.65,-113.25 358.63,-113.25 367.97,-113.25"/>
<polygon fill="#63b8ff" stroke="#63b8ff" points="338.71,-109.75 328.71,-113.25 338.71,-116.75 338.71,-109.75"/>
</a>
</g>
</g>
<!-- Node6 -->
<g id="Node000006" class="node">
<title>Node6</title>
<g id="a_Node000006"><a xlink:href="../../dc/d79/structfmt_1_1formatter_3_01winapi_1_1th32_1_1ModuleEntry_01_4.html" target="_top" xlink:title=" ">
<polygon fill="white" stroke="#bfbfbf" points="478.12,-79.5 364.62,-79.5 364.62,-49 478.12,-49 478.12,-79.5"/>
<text text-anchor="start" x="372.62" y="-65.05" font-family="Arial" font-size="11.00">formatter&lt; winapi::</text>
<text text-anchor="middle" x="421.38" y="-53.8" font-family="Arial" font-size="11.00">th32::ModuleEntry &gt;</text>
</a>
</g>
</g>
<!-- Node1&#45;&gt;Node6 -->
<g id="edge5_Node000001_Node000006" class="edge">
<title>Node1&#45;&gt;Node6</title>
<g id="a_edge5_Node000001_Node000006"><a xlink:title=" ">
<path fill="none" stroke="#63b8ff" d="M292.98,-100.1C315.01,-93.9 341.46,-86.46 364.54,-79.96"/>
<polygon fill="#63b8ff" stroke="#63b8ff" points="292.04,-96.73 283.36,-102.81 293.94,-103.47 292.04,-96.73"/>
</a>
</g>
</g>
<!-- Node7 -->
<g id="Node000007" class="node">
<title>Node7</title>
<g id="a_Node000007"><a xlink:href="../../d1/d78/structfmt_1_1formatter_3_01winapi_1_1th32_1_1ProcessEntry_01_4.html" target="_top" xlink:title=" ">
<polygon fill="white" stroke="#bfbfbf" points="480,-30.5 362.75,-30.5 362.75,0 480,0 480,-30.5"/>
<text text-anchor="start" x="370.75" y="-16.05" font-family="Arial" font-size="11.00">formatter&lt; winapi::</text>
<text text-anchor="middle" x="421.38" y="-4.8" font-family="Arial" font-size="11.00">th32::ProcessEntry &gt;</text>
</a>
</g>
</g>
<!-- Node1&#45;&gt;Node7 -->
<g id="edge6_Node000001_Node000007" class="edge">
<title>Node1&#45;&gt;Node7</title>
<g id="a_edge6_Node000001_Node000007"><a xlink:title=" ">
<path fill="none" stroke="#63b8ff" d="M269.87,-96.97C292.98,-81.41 329.45,-57.78 362.75,-40.25 368.83,-37.05 375.41,-33.91 381.87,-31"/>
<polygon fill="#63b8ff" stroke="#63b8ff" points="268.1,-93.94 261.8,-102.46 272.04,-99.73 268.1,-93.94"/>
</a>
</g>
</g>
<!-- Node2 -->
<g id="Node000002" class="node">
<title>Node2</title>
<g id="a_Node000002"><a xlink:title=" ">
<polygon fill="white" stroke="#bfbfbf" points="127.75,-128.5 0,-128.5 0,-98 127.75,-98 127.75,-128.5"/>
<text text-anchor="start" x="8" y="-114.05" font-family="Arial" font-size="11.00">formatter&lt; std::basic</text>
<text text-anchor="middle" x="63.88" y="-102.8" font-family="Arial" font-size="11.00">_string_view&lt; C &gt;, C &gt;</text>
</a>
</g>
</g>
<!-- Node2&#45;&gt;Node1 -->
<g id="edge1_Node000001_Node000002" class="edge">
<title>Node2&#45;&gt;Node1</title>
<g id="a_edge1_Node000001_Node000002"><a xlink:title=" ">
<path fill="none" stroke="#63b8ff" d="M139.51,-113.25C147.38,-113.25 155.42,-113.25 163.36,-113.25"/>
<polygon fill="#63b8ff" stroke="#63b8ff" points="139.63,-109.75 129.63,-113.25 139.63,-116.75 139.63,-109.75"/>
</a>
</g>
</g>
</g>
</svg>
