<?xml version="1.0" encoding="UTF-8" standalone="no"?>
<!DOCTYPE svg PUBLIC "-//W3C//DTD SVG 1.1//EN"
 "http://www.w3.org/Graphics/SVG/1.1/DTD/svg11.dtd">
<!-- Generated by graphviz version 10.0.1 (0)
 -->
<!-- Title: basic_ostream_formatter&lt; C &gt; Pages: 1 -->
<svg width="488pt" height="333pt"
 viewBox="0.00 0.00 488.00 332.50" xmlns="http://www.w3.org/2000/svg" xmlns:xlink="http://www.w3.org/1999/xlink">

<svg id="main" version="1.1" xmlns="http://www.w3.org/2000/svg" xmlns:xlink="http://www.w3.org/1999/xlink" xml:space="preserve" onload="init(evt)">
<style type="text/css"><![CDATA[
.node, .edge {opacity: 0.7;}
.node.selected, .edge.selected {opacity: 1;}
.edge:hover path { stroke: red; }
.edge:hover polygon { stroke: red; fill: red; }
]]></style>
<script type="application/ecmascript" xlink:href="../../svg.min.js"/>
<svg id="graph" class="graph">
<g id="graph0" class="graph" transform="scale(1 1) rotate(0) translate(4 328.5)">
<title>basic_ostream_formatter&lt; C &gt;</title>
<!-- Node1 -->
<g id="Node000001" class="node">
<title>Node1</title>
<g id="a_Node000001"><a xlink:title=" ">
<polygon fill="#999999" stroke="#666666" points="326.75,-171.88 163.75,-171.88 163.75,-152.62 326.75,-152.62 326.75,-171.88"/>
<text text-anchor="middle" x="245.25" y="-157.43" font-family="Arial" font-size="11.00">basic_ostream_formatter&lt; C &gt;</text>
</a>
</g>
</g>
<!-- Node3 -->
<g id="Node000003" class="node">
<title>Node3</title>
<g id="a_Node000003"><a xlink:href="../../d2/dac/structfmt_1_1formatter_3_01winapi_1_1Function_01_4.html" target="_top" xlink:title=" ">
<polygon fill="white" stroke="#bfbfbf" points="474.38,-324.5 368.38,-324.5 368.38,-294 474.38,-294 474.38,-324.5"/>
<text text-anchor="start" x="376.38" y="-310.05" font-family="Arial" font-size="11.00">formatter&lt; winapi::</text>
<text text-anchor="middle" x="421.38" y="-298.8" font-family="Arial" font-size="11.00">Function &gt;</text>
</a>
</g>
</g>
<!-- Node1&#45;&gt;Node3 -->
<g id="edge2_Node000001_Node000003" class="edge">
<title>Node1&#45;&gt;Node3</title>
<g id="a_edge2_Node000001_Node000003"><a xlink:title=" ">
<path fill="none" stroke="#63b8ff" d="M260.12,-180.92C280.27,-206.98 319.93,-254.4 362.75,-284.25 367.67,-287.68 373.14,-290.79 378.69,-293.56"/>
<polygon fill="#63b8ff" stroke="#63b8ff" points="263.14,-179.11 254.3,-173.27 257.57,-183.35 263.14,-179.11"/>
</a>
</g>
</g>
<!-- Node4 -->
<g id="Node000004" class="node">
<title>Node4</title>
<g id="a_Node000004"><a xlink:href="../../dd/daa/structfmt_1_1formatter_3_01winapi_1_1Handle_01_4.html" target="_top" xlink:title=" ">
<polygon fill="white" stroke="#bfbfbf" points="474.38,-275.5 368.38,-275.5 368.38,-245 474.38,-245 474.38,-275.5"/>
<text text-anchor="start" x="376.38" y="-261.05" font-family="Arial" font-size="11.00">formatter&lt; winapi::</text>
<text text-anchor="middle" x="421.38" y="-249.8" font-family="Arial" font-size="11.00">Handle &gt;</text>
</a>
</g>
</g>
<!-- Node1&#45;&gt;Node4 -->
<g id="edge3_Node000001_Node000004" class="edge">
<title>Node1&#45;&gt;Node4</title>
<g id="a_edge3_Node000001_Node000004"><a xlink:title=" ">
<path fill="none" stroke="#63b8ff" d="M269.87,-178.53C292.98,-194.09 329.45,-217.72 362.75,-235.25 368.83,-238.45 375.41,-241.59 381.87,-244.5"/>
<polygon fill="#63b8ff" stroke="#63b8ff" points="272.04,-175.77 261.8,-173.04 268.1,-181.56 272.04,-175.77"/>
</a>
</g>
</g>
<!-- Node5 -->
<g id="Node000005" class="node">
<title>Node5</title>
<g id="a_Node000005"><a xlink:href="../../df/d4b/structfmt_1_1formatter_3_01winapi_1_1HandleView_01_4.html" target="_top" xlink:title=" ">
<polygon fill="white" stroke="#bfbfbf" points="474.38,-226.5 368.38,-226.5 368.38,-196 474.38,-196 474.38,-226.5"/>
<text text-anchor="start" x="376.38" y="-212.05" font-family="Arial" font-size="11.00">formatter&lt; winapi::</text>
<text text-anchor="middle" x="421.38" y="-200.8" font-family="Arial" font-size="11.00">HandleView &gt;</text>
</a>
</g>
</g>
<!-- Node1&#45;&gt;Node5 -->
<g id="edge4_Node000001_Node000005" class="edge">
<title>Node1&#45;&gt;Node5</title>
<g id="a_edge4_Node000001_Node000005"><a xlink:title=" ">
<path fill="none" stroke="#63b8ff" d="M292.83,-175.36C315.97,-181.87 344.02,-189.76 367.91,-196.49"/>
<polygon fill="#63b8ff" stroke="#63b8ff" points="293.94,-172.03 283.36,-172.69 292.04,-178.77 293.94,-172.03"/>
</a>
</g>
</g>
<!-- Node6 -->
<g id="Node000006" class="node">
<title>Node6</title>
<g id="a_Node000006"><a xlink:href="../../d3/df8/structfmt_1_1formatter_3_01winapi_1_1MemoryAddress_01_4.html" target="_top" xlink:title=" ">
<polygon fill="white" stroke="#bfbfbf" points="474.38,-177.5 368.38,-177.5 368.38,-147 474.38,-147 474.38,-177.5"/>
<text text-anchor="start" x="376.38" y="-163.05" font-family="Arial" font-size="11.00">formatter&lt; winapi::</text>
<text text-anchor="middle" x="421.38" y="-151.8" font-family="Arial" font-size="11.00">MemoryAddress &gt;</text>
</a>
</g>
</g>
<!-- Node1&#45;&gt;Node6 -->
<g id="edge5_Node000001_Node000006" class="edge">
<title>Node1&#45;&gt;Node6</title>
<g id="a_edge5_Node000001_Node000006"><a xlink:title=" ">
<path fill="none" stroke="#63b8ff" d="M338.58,-162.25C348.65,-162.25 358.63,-162.25 367.97,-162.25"/>
<polygon fill="#63b8ff" stroke="#63b8ff" points="338.71,-158.75 328.71,-162.25 338.71,-165.75 338.71,-158.75"/>
</a>
</g>
</g>
<!-- Node7 -->
<g id="Node000007" class="node">
<title>Node7</title>
<g id="a_Node000007"><a xlink:href="../../d4/dd3/structfmt_1_1formatter_3_01winapi_1_1PID_01_4.html" target="_top" xlink:title="Custom formatter for PID type (fmt library).">
<polygon fill="white" stroke="#666666" points="474.38,-128.5 368.38,-128.5 368.38,-98 474.38,-98 474.38,-128.5"/>
<text text-anchor="start" x="376.38" y="-114.05" font-family="Arial" font-size="11.00">formatter&lt; winapi::</text>
<text text-anchor="middle" x="421.38" y="-102.8" font-family="Arial" font-size="11.00">PID &gt;</text>
</a>
</g>
</g>
<!-- Node1&#45;&gt;Node7 -->
<g id="edge6_Node000001_Node000007" class="edge">
<title>Node1&#45;&gt;Node7</title>
<g id="a_edge6_Node000001_Node000007"><a xlink:title=" ">
<path fill="none" stroke="#63b8ff" d="M292.83,-149.14C315.97,-142.63 344.02,-134.74 367.91,-128.01"/>
<polygon fill="#63b8ff" stroke="#63b8ff" points="292.04,-145.73 283.36,-151.81 293.94,-152.47 292.04,-145.73"/>
</a>
</g>
</g>
<!-- Node8 -->
<g id="Node000008" class="node">
<title>Node8</title>
<g id="a_Node000008"><a xlink:href="../../dc/d79/structfmt_1_1formatter_3_01winapi_1_1th32_1_1ModuleEntry_01_4.html" target="_top" xlink:title=" ">
<polygon fill="white" stroke="#bfbfbf" points="478.12,-79.5 364.62,-79.5 364.62,-49 478.12,-49 478.12,-79.5"/>
<text text-anchor="start" x="372.62" y="-65.05" font-family="Arial" font-size="11.00">formatter&lt; winapi::</text>
<text text-anchor="middle" x="421.38" y="-53.8" font-family="Arial" font-size="11.00">th32::ModuleEntry &gt;</text>
</a>
</g>
</g>
<!-- Node1&#45;&gt;Node8 -->
<g id="edge7_Node000001_Node000008" class="edge">
<title>Node1&#45;&gt;Node8</title>
<g id="a_edge7_Node000001_Node000008"><a xlink:title=" ">
<path fill="none" stroke="#63b8ff" d="M269.87,-145.97C292.98,-130.41 329.45,-106.78 362.75,-89.25 368.83,-86.05 375.41,-82.91 381.87,-80"/>
<polygon fill="#63b8ff" stroke="#63b8ff" points="268.1,-142.94 261.8,-151.46 272.04,-148.73 268.1,-142.94"/>
</a>
</g>
</g>
<!-- Node9 -->
<g id="Node000009" class="node">
<title>Node9</title>
<g id="a_Node000009"><a xlink:href="../../d1/d78/structfmt_1_1formatter_3_01winapi_1_1th32_1_1ProcessEntry_01_4.html" target="_top" xlink:title=" ">
<polygon fill="white" stroke="#bfbfbf" points="480,-30.5 362.75,-30.5 362.75,0 480,0 480,-30.5"/>
<text text-anchor="start" x="370.75" y="-16.05" font-family="Arial" font-size="11.00">formatter&lt; winapi::</text>
<text text-anchor="middle" x="421.38" y="-4.8" font-family="Arial" font-size="11.00">th32::ProcessEntry &gt;</text>
</a>
</g>
</g>
<!-- Node1&#45;&gt;Node9 -->
<g id="edge8_Node000001_Node000009" class="edge">
<title>Node1&#45;&gt;Node9</title>
<g id="a_edge8_Node000001_Node000009"><a xlink:title=" ">
<path fill="none" stroke="#63b8ff" d="M260.12,-143.58C280.27,-117.52 319.93,-70.1 362.75,-40.25 367.67,-36.82 373.14,-33.71 378.69,-30.94"/>
<polygon fill="#63b8ff" stroke="#63b8ff" points="257.57,-141.15 254.3,-151.23 263.14,-145.39 257.57,-141.15"/>
</a>
</g>
</g>
<!-- Node2 -->
<g id="Node000002" class="node">
<title>Node2</title>
<g id="a_Node000002"><a xlink:title=" ">
<polygon fill="white" stroke="#bfbfbf" points="127.75,-177.5 0,-177.5 0,-147 127.75,-147 127.75,-177.5"/>
<text text-anchor="start" x="8" y="-163.05" font-family="Arial" font-size="11.00">formatter&lt; std::basic</text>
<text text-anchor="middle" x="63.88" y="-151.8" font-family="Arial" font-size="11.00">_string_view&lt; C &gt;, C &gt;</text>
</a>
</g>
</g>
<!-- Node2&#45;&gt;Node1 -->
<g id="edge1_Node000001_Node000002" class="edge">
<title>Node2&#45;&gt;Node1</title>
<g id="a_edge1_Node000001_Node000002"><a xlink:title=" ">
<path fill="none" stroke="#63b8ff" d="M139.51,-162.25C147.38,-162.25 155.42,-162.25 163.36,-162.25"/>
<polygon fill="#63b8ff" stroke="#63b8ff" points="139.63,-158.75 129.63,-162.25 139.63,-165.75 139.63,-158.75"/>
</a>
</g>
</g>
</g>
</svg>
</svg>

<style type='text/css'>
<![CDATA[
[data-mouse-over-selected='false'] { opacity: 0.7; }
[data-mouse-over-selected='true']  { opacity: 1.0; }
]]>
</style>
<script type="application/ecmascript"><![CDATA[
document.addEventListener('DOMContentLoaded', (event) => {
  highlightEdges();
  highlightAdjacentNodes();
});
]]></script>
</svg>
