<?xml version="1.0" encoding="UTF-8" standalone="no"?>
<!DOCTYPE svg PUBLIC "-//W3C//DTD SVG 1.1//EN"
 "http://www.w3.org/Graphics/SVG/1.1/DTD/svg11.dtd">
<!-- Generated by graphviz version 10.0.1 (0)
 -->
<!-- Title: ProcessEntry Pages: 1 -->
<svg width="160pt" height="161pt"
 viewBox="0.00 0.00 160.25 161.25" xmlns="http://www.w3.org/2000/svg" xmlns:xlink="http://www.w3.org/1999/xlink">
<g id="graph0" class="graph" transform="scale(1 1) rotate(0) translate(4 157.25)">
<title>ProcessEntry</title>
<!-- Node1 -->
<g id="Node000001" class="node">
<title>Node1</title>
<g id="a_Node000001"><a xlink:title="Describes an entry from a list of the processes residing in the system address space when a snapshot ...">
<polygon fill="#999999" stroke="#666666" points="95.25,-19.25 14.75,-19.25 14.75,0 95.25,0 95.25,-19.25"/>
<text text-anchor="middle" x="55" y="-4.8" font-family="Arial" font-size="11.00">ProcessEntry</text>
</a>
</g>
</g>
<!-- Node2 -->
<g id="Node000002" class="node">
<title>Node2</title>
<g id="a_Node000002"><a xlink:href="../../df/d9b/structwinapi_1_1PID.html" target="_top" xlink:title="Wrapper for process ID (PID) integer.">
<polygon fill="white" stroke="#666666" points="34,-97 0,-97 0,-77.75 34,-77.75 34,-97"/>
<text text-anchor="middle" x="17" y="-82.55" font-family="Arial" font-size="11.00">PID</text>
</a>
</g>
</g>
<!-- Node2&#45;&gt;Node1 -->
<g id="edge1_Node000001_Node000002" class="edge">
<title>Node2&#45;&gt;Node1</title>
<g id="a_edge1_Node000001_Node000002"><a xlink:title=" ">
<path fill="none" stroke="#9a32cd" stroke-dasharray="5,2" d="M13.43,-66.11C12.77,-56.82 13.42,-45.97 18,-37.25 21.9,-29.82 28.92,-23.98 35.8,-19.69"/>
<polygon fill="#9a32cd" stroke="#9a32cd" points="9.95,-66.48 14.72,-75.95 16.89,-65.58 9.95,-66.48"/>
</a>
</g>
<text text-anchor="middle" x="45" y="-49.3" font-family="Arial" font-size="11.00" fill="grey"> parent_pid</text>
<text text-anchor="middle" x="45" y="-38.05" font-family="Arial" font-size="11.00" fill="grey">pid</text>
</g>
<!-- Node3 -->
<g id="Node000003" class="node">
<title>Node3</title>
<g id="a_Node000003"><a xlink:title=" ">
<polygon fill="white" stroke="#666666" points="115.12,-97 72.88,-97 72.88,-77.75 115.12,-77.75 115.12,-97"/>
<text text-anchor="middle" x="94" y="-82.55" font-family="Arial" font-size="11.00">string</text>
</a>
</g>
</g>
<!-- Node3&#45;&gt;Node1 -->
<g id="edge2_Node000001_Node000003" class="edge">
<title>Node3&#45;&gt;Node1</title>
<g id="a_edge2_Node000001_Node000003"><a xlink:title=" ">
<path fill="none" stroke="#9a32cd" stroke-dasharray="5,2" d="M86.15,-67.1C82.21,-57.91 77.18,-46.85 72,-37.25 68.67,-31.07 64.42,-24.42 61,-19.3"/>
<polygon fill="#9a32cd" stroke="#9a32cd" points="82.82,-68.21 89.9,-76.09 89.28,-65.52 82.82,-68.21"/>
</a>
</g>
<text text-anchor="middle" x="97" y="-43.67" font-family="Arial" font-size="11.00" fill="grey"> name</text>
</g>
<!-- Node4 -->
<g id="Node000004" class="node">
<title>Node4</title>
<g id="a_Node000004"><a xlink:title=" ">
<polygon fill="white" stroke="#666666" points="152.25,-153.25 35.75,-153.25 35.75,-134 152.25,-134 152.25,-153.25"/>
<text text-anchor="middle" x="94" y="-138.8" font-family="Arial" font-size="11.00">basic_string&lt; Char &gt;</text>
</a>
</g>
</g>
<!-- Node4&#45;&gt;Node3 -->
<g id="edge3_Node000003_Node000004" class="edge">
<title>Node4&#45;&gt;Node3</title>
<g id="a_edge3_Node000003_Node000004"><a xlink:title=" ">
<path fill="none" stroke="#63b8ff" d="M94,-122.44C94,-113.73 94,-103.99 94,-97.17"/>
<polygon fill="#63b8ff" stroke="#63b8ff" points="90.5,-122.15 94,-132.15 97.5,-122.15 90.5,-122.15"/>
</a>
</g>
</g>
</g>
</svg>
