<?xml version="1.0" encoding="UTF-8" standalone="no"?>
<!DOCTYPE svg PUBLIC "-//W3C//DTD SVG 1.1//EN"
 "http://www.w3.org/Graphics/SVG/1.1/DTD/svg11.dtd">
<!-- Generated by graphviz version 10.0.1 (0)
 -->
<!-- Title: ProcessEntry Pages: 1 -->
<svg width="125pt" height="150pt"
 viewBox="0.00 0.00 124.50 150.00" xmlns="http://www.w3.org/2000/svg" xmlns:xlink="http://www.w3.org/1999/xlink">
<g id="graph0" class="graph" transform="scale(1 1) rotate(0) translate(4 146)">
<title>ProcessEntry</title>
<!-- Node1 -->
<g id="Node000001" class="node">
<title>Node1</title>
<g id="a_Node000001"><a xlink:title="Describes an entry from a list of the processes residing in the system address space when a snapshot ...">
<polygon fill="#999999" stroke="#666666" points="98.5,-19.25 18,-19.25 18,0 98.5,0 98.5,-19.25"/>
<text text-anchor="middle" x="58.25" y="-4.8" font-family="Arial" font-size="11.00">ProcessEntry</text>
</a>
</g>
</g>
<!-- Node2 -->
<g id="Node000002" class="node">
<title>Node2</title>
<g id="a_Node000002"><a xlink:title=" ">
<polygon fill="white" stroke="#666666" points="79.38,-85.75 37.12,-85.75 37.12,-66.5 79.38,-66.5 79.38,-85.75"/>
<text text-anchor="middle" x="58.25" y="-71.3" font-family="Arial" font-size="11.00">string</text>
</a>
</g>
</g>
<!-- Node2&#45;&gt;Node1 -->
<g id="edge1_Node000001_Node000002" class="edge">
<title>Node2&#45;&gt;Node1</title>
<g id="a_edge1_Node000001_Node000002"><a xlink:title=" ">
<path fill="none" stroke="#9a32cd" stroke-dasharray="5,2" d="M58.25,-54.65C58.25,-42.82 58.25,-28.54 58.25,-19.52"/>
<polygon fill="#9a32cd" stroke="#9a32cd" points="54.75,-54.64 58.25,-64.64 61.75,-54.64 54.75,-54.64"/>
</a>
</g>
<text text-anchor="middle" x="73.25" y="-38.05" font-family="Arial" font-size="11.00" fill="grey"> name</text>
</g>
<!-- Node3 -->
<g id="Node000003" class="node">
<title>Node3</title>
<g id="a_Node000003"><a xlink:title=" ">
<polygon fill="white" stroke="#666666" points="116.5,-142 0,-142 0,-122.75 116.5,-122.75 116.5,-142"/>
<text text-anchor="middle" x="58.25" y="-127.55" font-family="Arial" font-size="11.00">basic_string&lt; Char &gt;</text>
</a>
</g>
</g>
<!-- Node3&#45;&gt;Node2 -->
<g id="edge2_Node000002_Node000003" class="edge">
<title>Node3&#45;&gt;Node2</title>
<g id="a_edge2_Node000002_Node000003"><a xlink:title=" ">
<path fill="none" stroke="#63b8ff" d="M58.25,-111.19C58.25,-102.48 58.25,-92.74 58.25,-85.92"/>
<polygon fill="#63b8ff" stroke="#63b8ff" points="54.75,-110.9 58.25,-120.9 61.75,-110.9 54.75,-110.9"/>
</a>
</g>
</g>
</g>
</svg>
