<?xml version="1.0" encoding="UTF-8" standalone="no"?>
<!DOCTYPE svg PUBLIC "-//W3C//DTD SVG 1.1//EN"
 "http://www.w3.org/Graphics/SVG/1.1/DTD/svg11.dtd">
<!-- Generated by graphviz version 10.0.1 (0)
 -->
<!-- Title: Library Pages: 1 -->
<svg width="212pt" height="150pt"
 viewBox="0.00 0.00 211.88 150.00" xmlns="http://www.w3.org/2000/svg" xmlns:xlink="http://www.w3.org/1999/xlink">

<svg id="main" version="1.1" xmlns="http://www.w3.org/2000/svg" xmlns:xlink="http://www.w3.org/1999/xlink" xml:space="preserve" onload="init(evt)">
<style type="text/css"><![CDATA[
.node, .edge {opacity: 0.7;}
.node.selected, .edge.selected {opacity: 1;}
.edge:hover path { stroke: red; }
.edge:hover polygon { stroke: red; fill: red; }
]]></style>
<script type="application/ecmascript" xlink:href="../../svg.min.js"/>
<svg id="graph" class="graph">
<g id="graph0" class="graph" transform="scale(1 1) rotate(0) translate(4 146)">
<title>Library</title>
<!-- Node1 -->
<g id="Node000001" class="node">
<title>Node1</title>
<g id="a_Node000001"><a xlink:title=" ">
<polygon fill="#999999" stroke="#666666" points="140.75,-19.25 91.75,-19.25 91.75,0 140.75,0 140.75,-19.25"/>
<text text-anchor="middle" x="116.25" y="-4.8" font-family="Arial" font-size="11.00">Library</text>
</a>
</g>
</g>
<!-- Node2 -->
<g id="Node000002" class="node">
<title>Node2</title>
<g id="a_Node000002"><a xlink:title=" ">
<polygon fill="white" stroke="#666666" points="100.38,-85.75 58.12,-85.75 58.12,-66.5 100.38,-66.5 100.38,-85.75"/>
<text text-anchor="middle" x="79.25" y="-71.3" font-family="Arial" font-size="11.00">string</text>
</a>
</g>
</g>
<!-- Node2&#45;&gt;Node1 -->
<g id="edge1_Node000001_Node000002" class="edge">
<title>Node2&#45;&gt;Node1</title>
<g id="a_edge1_Node000001_Node000002"><a xlink:title=" ">
<path fill="none" stroke="#9a32cd" stroke-dasharray="5,2" d="M85.71,-55.43C88.03,-49.41 90.92,-42.89 94.25,-37.25 98.03,-30.85 103.31,-24.4 107.75,-19.46"/>
<polygon fill="#9a32cd" stroke="#9a32cd" points="82.5,-54.01 82.46,-64.61 89.1,-56.35 82.5,-54.01"/>
</a>
</g>
<text text-anchor="middle" x="116.75" y="-38.05" font-family="Arial" font-size="11.00" fill="grey"> m_name</text>
</g>
<!-- Node3 -->
<g id="Node000003" class="node">
<title>Node3</title>
<g id="a_Node000003"><a xlink:title=" ">
<polygon fill="white" stroke="#666666" points="116.5,-142 0,-142 0,-122.75 116.5,-122.75 116.5,-142"/>
<text text-anchor="middle" x="58.25" y="-127.55" font-family="Arial" font-size="11.00">basic_string&lt; Char &gt;</text>
</a>
</g>
</g>
<!-- Node3&#45;&gt;Node2 -->
<g id="edge2_Node000002_Node000003" class="edge">
<title>Node3&#45;&gt;Node2</title>
<g id="a_edge2_Node000002_Node000003"><a xlink:title=" ">
<path fill="none" stroke="#63b8ff" d="M65.83,-111.79C69.26,-102.93 73.14,-92.9 75.85,-85.92"/>
<polygon fill="#63b8ff" stroke="#63b8ff" points="62.61,-110.42 62.26,-121.01 69.14,-112.94 62.61,-110.42"/>
</a>
</g>
</g>
<!-- Node4 -->
<g id="Node000004" class="node">
<title>Node4</title>
<g id="a_Node000004"><a xlink:href="../../dd/d5e/structwinapi_1_1Handle.html" target="_top" xlink:title=" ">
<polygon fill="white" stroke="#bfbfbf" points="189.12,-85.75 139.38,-85.75 139.38,-66.5 189.12,-66.5 189.12,-85.75"/>
<text text-anchor="middle" x="164.25" y="-71.3" font-family="Arial" font-size="11.00">Handle</text>
</a>
</g>
</g>
<!-- Node4&#45;&gt;Node1 -->
<g id="edge3_Node000001_Node000004" class="edge">
<title>Node4&#45;&gt;Node1</title>
<g id="a_edge3_Node000001_Node000004"><a xlink:title=" ">
<path fill="none" stroke="#9a32cd" stroke-dasharray="5,2" d="M152.68,-56.57C148.61,-50.31 143.88,-43.37 139.25,-37.25 134.68,-31.21 129.14,-24.78 124.64,-19.74"/>
<polygon fill="#9a32cd" stroke="#9a32cd" points="149.67,-58.35 157.99,-64.9 155.57,-54.59 149.67,-58.35"/>
</a>
</g>
<text text-anchor="middle" x="172.38" y="-38.05" font-family="Arial" font-size="11.00" fill="grey"> m_handle</text>
</g>
<!-- Node5 -->
<g id="Node000005" class="node">
<title>Node5</title>
<g id="a_Node000005"><a xlink:href="../../db/d87/structwinapi_1_1detail_1_1PointerLike.html" target="_top" xlink:title=" ">
<polygon fill="white" stroke="#bfbfbf" points="203.88,-142 134.62,-142 134.62,-122.75 203.88,-122.75 203.88,-142"/>
<text text-anchor="middle" x="169.25" y="-127.55" font-family="Arial" font-size="11.00">PointerLike</text>
</a>
</g>
</g>
<!-- Node5&#45;&gt;Node4 -->
<g id="edge4_Node000004_Node000005" class="edge">
<title>Node5&#45;&gt;Node4</title>
<g id="a_edge4_Node000004_Node000005"><a xlink:title=" ">
<path fill="none" stroke="#63b8ff" d="M167.39,-111.19C166.59,-102.48 165.69,-92.74 165.06,-85.92"/>
<polygon fill="#63b8ff" stroke="#63b8ff" points="163.88,-111.27 168.29,-120.91 170.85,-110.63 163.88,-111.27"/>
</a>
</g>
</g>
</g>
</svg>
</svg>

<style type='text/css'>
<![CDATA[
[data-mouse-over-selected='false'] { opacity: 0.7; }
[data-mouse-over-selected='true']  { opacity: 1.0; }
]]>
</style>
<script type="application/ecmascript"><![CDATA[
document.addEventListener('DOMContentLoaded', (event) => {
  highlightEdges();
  highlightAdjacentNodes();
});
]]></script>
</svg>
