<?xml version="1.0" encoding="UTF-8" standalone="no"?>
<!DOCTYPE svg PUBLIC "-//W3C//DTD SVG 1.1//EN"
 "http://www.w3.org/Graphics/SVG/1.1/DTD/svg11.dtd">
<!-- Generated by graphviz version 10.0.1 (0)
 -->
<!-- Title: Library Pages: 1 -->
<svg width="258pt" height="150pt"
 viewBox="0.00 0.00 257.50 150.00" xmlns="http://www.w3.org/2000/svg" xmlns:xlink="http://www.w3.org/1999/xlink">
<g id="graph0" class="graph" transform="scale(1 1) rotate(0) translate(4 146)">
<title>Library</title>
<!-- Node1 -->
<g id="Node000001" class="node">
<title>Node1</title>
<g id="a_Node000001"><a xlink:title=" ">
<polygon fill="#999999" stroke="#666666" points="181.75,-19.25 132.75,-19.25 132.75,0 181.75,0 181.75,-19.25"/>
<text text-anchor="middle" x="157.25" y="-4.8" font-family="Arial" font-size="11.00">Library</text>
</a>
</g>
</g>
<!-- Node2 -->
<g id="Node000002" class="node">
<title>Node2</title>
<g id="a_Node000002"><a xlink:title=" ">
<polygon fill="white" stroke="#666666" points="94.38,-85.75 52.12,-85.75 52.12,-66.5 94.38,-66.5 94.38,-85.75"/>
<text text-anchor="middle" x="73.25" y="-71.3" font-family="Arial" font-size="11.00">string</text>
</a>
</g>
</g>
<!-- Node2&#45;&gt;Node1 -->
<g id="edge1_Node000001_Node000002" class="edge">
<title>Node2&#45;&gt;Node1</title>
<g id="a_edge1_Node000001_Node000002"><a xlink:title=" ">
<path fill="none" stroke="#9a32cd" stroke-dasharray="5,2" d="M86.79,-57.54C92.61,-50.69 99.79,-43.09 107.25,-37.25 116.08,-30.34 126.96,-24.3 136.31,-19.73"/>
<polygon fill="#9a32cd" stroke="#9a32cd" points="84.31,-55.04 80.74,-65.02 89.75,-59.44 84.31,-55.04"/>
</a>
</g>
<text text-anchor="middle" x="129.75" y="-38.05" font-family="Arial" font-size="11.00" fill="grey"> m_name</text>
</g>
<!-- Node3 -->
<g id="Node000003" class="node">
<title>Node3</title>
<g id="a_Node000003"><a xlink:title=" ">
<polygon fill="white" stroke="#666666" points="116.5,-142 0,-142 0,-122.75 116.5,-122.75 116.5,-142"/>
<text text-anchor="middle" x="58.25" y="-127.55" font-family="Arial" font-size="11.00">basic_string&lt; Char &gt;</text>
</a>
</g>
</g>
<!-- Node3&#45;&gt;Node2 -->
<g id="edge2_Node000002_Node000003" class="edge">
<title>Node3&#45;&gt;Node2</title>
<g id="a_edge2_Node000002_Node000003"><a xlink:title=" ">
<path fill="none" stroke="#63b8ff" d="M63.75,-111.49C66.18,-102.7 68.91,-92.82 70.82,-85.92"/>
<polygon fill="#63b8ff" stroke="#63b8ff" points="60.42,-110.39 61.13,-120.96 67.17,-112.25 60.42,-110.39"/>
</a>
</g>
</g>
<!-- Node4 -->
<g id="Node000004" class="node">
<title>Node4</title>
<g id="a_Node000004"><a xlink:href="../../dd/d5e/structwinapi_1_1Handle.html" target="_top" xlink:title=" ">
<polygon fill="white" stroke="#bfbfbf" points="189.12,-85.75 139.38,-85.75 139.38,-66.5 189.12,-66.5 189.12,-85.75"/>
<text text-anchor="middle" x="164.25" y="-71.3" font-family="Arial" font-size="11.00">Handle</text>
</a>
</g>
</g>
<!-- Node4&#45;&gt;Node1 -->
<g id="edge3_Node000001_Node000004" class="edge">
<title>Node4&#45;&gt;Node1</title>
<g id="a_edge3_Node000001_Node000004"><a xlink:title=" ">
<path fill="none" stroke="#9a32cd" stroke-dasharray="5,2" d="M159.08,-55.14C158.65,-52.91 158.27,-50.67 158,-48.5 156.77,-38.71 156.72,-27.39 156.9,-19.69"/>
<polygon fill="#9a32cd" stroke="#9a32cd" points="155.67,-55.92 161.35,-64.86 162.49,-54.33 155.67,-55.92"/>
</a>
</g>
<text text-anchor="middle" x="182.38" y="-38.05" font-family="Arial" font-size="11.00" fill="grey"> m_handle</text>
</g>
<!-- Node5 -->
<g id="Node000005" class="node">
<title>Node5</title>
<g id="a_Node000005"><a xlink:href="../../db/d87/structwinapi_1_1detail_1_1PointerLike.html" target="_top" xlink:title=" ">
<polygon fill="white" stroke="#bfbfbf" points="203.88,-142 134.62,-142 134.62,-122.75 203.88,-122.75 203.88,-142"/>
<text text-anchor="middle" x="169.25" y="-127.55" font-family="Arial" font-size="11.00">PointerLike</text>
</a>
</g>
</g>
<!-- Node5&#45;&gt;Node4 -->
<g id="edge4_Node000004_Node000005" class="edge">
<title>Node5&#45;&gt;Node4</title>
<g id="a_edge4_Node000004_Node000005"><a xlink:title=" ">
<path fill="none" stroke="#63b8ff" d="M167.39,-111.19C166.59,-102.48 165.69,-92.74 165.06,-85.92"/>
<polygon fill="#63b8ff" stroke="#63b8ff" points="163.88,-111.27 168.29,-120.91 170.85,-110.63 163.88,-111.27"/>
</a>
</g>
</g>
<!-- Node6 -->
<g id="Node000006" class="node">
<title>Node6</title>
<g id="a_Node000006"><a xlink:href="../../df/d9b/structwinapi_1_1PID.html" target="_top" xlink:title="Wrapper for process ID (PID) integer.">
<polygon fill="white" stroke="#666666" points="247.25,-85.75 213.25,-85.75 213.25,-66.5 247.25,-66.5 247.25,-85.75"/>
<text text-anchor="middle" x="230.25" y="-71.3" font-family="Arial" font-size="11.00">PID</text>
</a>
</g>
</g>
<!-- Node6&#45;&gt;Node1 -->
<g id="edge5_Node000001_Node000006" class="edge">
<title>Node6&#45;&gt;Node1</title>
<g id="a_edge5_Node000001_Node000006"><a xlink:title=" ">
<path fill="none" stroke="#9a32cd" stroke-dasharray="5,2" d="M221.82,-55.91C218.3,-49.42 213.74,-42.5 208.25,-37.25 200.52,-29.87 190.35,-24 181.12,-19.68"/>
<polygon fill="#9a32cd" stroke="#9a32cd" points="218.56,-57.22 226.07,-64.69 224.86,-54.17 218.56,-57.22"/>
</a>
</g>
<text text-anchor="middle" x="233.38" y="-38.05" font-family="Arial" font-size="11.00" fill="grey"> m_pid</text>
</g>
</g>
</svg>
