<?xml version="1.0" encoding="UTF-8" standalone="no"?>
<!DOCTYPE svg PUBLIC "-//W3C//DTD SVG 1.1//EN"
 "http://www.w3.org/Graphics/SVG/1.1/DTD/svg11.dtd">
<!-- Generated by graphviz version 10.0.1 (0)
 -->
<!-- Title: MemoryBasicInformation Pages: 1 -->
<svg width="153pt" height="161pt"
 viewBox="0.00 0.00 152.88 161.25" xmlns="http://www.w3.org/2000/svg" xmlns:xlink="http://www.w3.org/1999/xlink">
<g id="graph0" class="graph" transform="scale(1 1) rotate(0) translate(4 157.25)">
<title>MemoryBasicInformation</title>
<!-- Node1 -->
<g id="Node000001" class="node">
<title>Node1</title>
<g id="a_Node000001"><a xlink:title=" ">
<polygon fill="#999999" stroke="#666666" points="135.25,-19.25 0,-19.25 0,0 135.25,0 135.25,-19.25"/>
<text text-anchor="middle" x="67.62" y="-4.8" font-family="Arial" font-size="11.00">MemoryBasicInformation</text>
</a>
</g>
</g>
<!-- Node2 -->
<g id="Node000002" class="node">
<title>Node2</title>
<g id="a_Node000002"><a xlink:href="../../d7/d70/classwinapi_1_1MemoryAddress.html" target="_top" xlink:title=" ">
<polygon fill="white" stroke="#bfbfbf" points="115,-97 20.25,-97 20.25,-77.75 115,-77.75 115,-97"/>
<text text-anchor="middle" x="67.62" y="-82.55" font-family="Arial" font-size="11.00">MemoryAddress</text>
</a>
</g>
</g>
<!-- Node2&#45;&gt;Node1 -->
<g id="edge1_Node000001_Node000002" class="edge">
<title>Node2&#45;&gt;Node1</title>
<g id="a_edge1_Node000001_Node000002"><a xlink:title=" ">
<path fill="none" stroke="#9a32cd" stroke-dasharray="5,2" d="M67.62,-66.1C67.62,-50.95 67.62,-30.98 67.62,-19.6"/>
<polygon fill="#9a32cd" stroke="#9a32cd" points="64.13,-65.87 67.63,-75.87 71.13,-65.87 64.13,-65.87"/>
</a>
</g>
<text text-anchor="middle" x="106.25" y="-49.3" font-family="Arial" font-size="11.00" fill="grey"> allocation_base</text>
<text text-anchor="middle" x="106.25" y="-38.05" font-family="Arial" font-size="11.00" fill="grey">base_address</text>
</g>
<!-- Node3 -->
<g id="Node000003" class="node">
<title>Node3</title>
<g id="a_Node000003"><a xlink:href="../../db/d87/structwinapi_1_1detail_1_1PointerLike.html" target="_top" xlink:title=" ">
<polygon fill="white" stroke="#bfbfbf" points="102.25,-153.25 33,-153.25 33,-134 102.25,-134 102.25,-153.25"/>
<text text-anchor="middle" x="67.62" y="-138.8" font-family="Arial" font-size="11.00">PointerLike</text>
</a>
</g>
</g>
<!-- Node3&#45;&gt;Node2 -->
<g id="edge2_Node000002_Node000003" class="edge">
<title>Node3&#45;&gt;Node2</title>
<g id="a_edge2_Node000002_Node000003"><a xlink:title=" ">
<path fill="none" stroke="#63b8ff" d="M67.62,-122.44C67.62,-113.73 67.62,-103.99 67.62,-97.17"/>
<polygon fill="#63b8ff" stroke="#63b8ff" points="64.13,-122.15 67.63,-132.15 71.13,-122.15 64.13,-122.15"/>
</a>
</g>
</g>
</g>
</svg>
