<?xml version="1.0" encoding="UTF-8" standalone="no"?>
<!DOCTYPE svg PUBLIC "-//W3C//DTD SVG 1.1//EN"
 "http://www.w3.org/Graphics/SVG/1.1/DTD/svg11.dtd">
<!-- Generated by graphviz version 10.0.1 (0)
 -->
<!-- Title: formatter&lt; winapi::MemoryAddress &gt; Pages: 1 -->
<svg width="136pt" height="160pt"
 viewBox="0.00 0.00 135.75 160.25" xmlns="http://www.w3.org/2000/svg" xmlns:xlink="http://www.w3.org/1999/xlink">
<g id="graph0" class="graph" transform="scale(1 1) rotate(0) translate(4 156.25)">
<title>formatter&lt; winapi::MemoryAddress &gt;</title>
<!-- Node1 -->
<g id="Node000001" class="node">
<title>Node1</title>
<g id="a_Node000001"><a xlink:title=" ">
<polygon fill="#999999" stroke="#666666" points="116.88,-30.5 10.88,-30.5 10.88,0 116.88,0 116.88,-30.5"/>
<text text-anchor="start" x="18.88" y="-16.05" font-family="Arial" font-size="11.00">formatter&lt; winapi::</text>
<text text-anchor="middle" x="63.88" y="-4.8" font-family="Arial" font-size="11.00">MemoryAddress &gt;</text>
</a>
</g>
</g>
<!-- Node2 -->
<g id="Node000002" class="node">
<title>Node2</title>
<g id="a_Node000002"><a xlink:href="../../db/d58/structwinapi_1_1utility_1_1basic__ostream__formatter.html" target="_top" xlink:title=" ">
<polygon fill="white" stroke="#bfbfbf" points="116.12,-85.75 11.62,-85.75 11.62,-66.5 116.12,-66.5 116.12,-85.75"/>
<text text-anchor="middle" x="63.88" y="-71.3" font-family="Arial" font-size="11.00">ostream_formatter</text>
</a>
</g>
</g>
<!-- Node2&#45;&gt;Node1 -->
<g id="edge1_Node000001_Node000002" class="edge">
<title>Node2&#45;&gt;Node1</title>
<g id="a_edge1_Node000001_Node000002"><a xlink:title=" ">
<path fill="none" stroke="#63b8ff" d="M63.88,-54.92C63.88,-46.99 63.88,-38.06 63.88,-30.78"/>
<polygon fill="#63b8ff" stroke="#63b8ff" points="60.38,-54.67 63.88,-64.67 67.38,-54.67 60.38,-54.67"/>
</a>
</g>
</g>
<!-- Node3 -->
<g id="Node000003" class="node">
<title>Node3</title>
<g id="a_Node000003"><a xlink:title=" ">
<polygon fill="white" stroke="#bfbfbf" points="127.75,-152.25 0,-152.25 0,-121.75 127.75,-121.75 127.75,-152.25"/>
<text text-anchor="start" x="8" y="-137.8" font-family="Arial" font-size="11.00">formatter&lt; std::basic</text>
<text text-anchor="middle" x="63.88" y="-126.55" font-family="Arial" font-size="11.00">_string_view&lt; C &gt;, C &gt;</text>
</a>
</g>
</g>
<!-- Node3&#45;&gt;Node2 -->
<g id="edge2_Node000002_Node000003" class="edge">
<title>Node3&#45;&gt;Node2</title>
<g id="a_edge2_Node000002_Node000003"><a xlink:title=" ">
<path fill="none" stroke="#63b8ff" d="M63.88,-109.98C63.88,-101.48 63.88,-92.59 63.88,-86.2"/>
<polygon fill="#63b8ff" stroke="#63b8ff" points="60.38,-109.93 63.88,-119.93 67.38,-109.93 60.38,-109.93"/>
</a>
</g>
</g>
</g>
</svg>
