<?xml version="1.0" encoding="UTF-8" standalone="no"?>
<!DOCTYPE svg PUBLIC "-//W3C//DTD SVG 1.1//EN"
 "http://www.w3.org/Graphics/SVG/1.1/DTD/svg11.dtd">
<!-- Generated by graphviz version 10.0.1 (0)
 -->
<!-- Title: ModuleEntry Pages: 1 -->
<svg width="259pt" height="150pt"
 viewBox="0.00 0.00 259.25 150.00" xmlns="http://www.w3.org/2000/svg" xmlns:xlink="http://www.w3.org/1999/xlink">
<g id="graph0" class="graph" transform="scale(1 1) rotate(0) translate(4 146)">
<title>ModuleEntry</title>
<!-- Node1 -->
<g id="Node000001" class="node">
<title>Node1</title>
<g id="a_Node000001"><a xlink:title="Describes an entry from a list of the modules belonging to the specified process.">
<polygon fill="#999999" stroke="#666666" points="127.38,-19.25 50.62,-19.25 50.62,0 127.38,0 127.38,-19.25"/>
<text text-anchor="middle" x="89" y="-4.8" font-family="Arial" font-size="11.00">ModuleEntry</text>
</a>
</g>
</g>
<!-- Node2 -->
<g id="Node000002" class="node">
<title>Node2</title>
<g id="a_Node000002"><a xlink:href="../../df/d9b/structwinapi_1_1PID.html" target="_top" xlink:title="Wrapper for process ID (PID) integer.">
<polygon fill="white" stroke="#666666" points="34,-85.75 0,-85.75 0,-66.5 34,-66.5 34,-85.75"/>
<text text-anchor="middle" x="17" y="-71.3" font-family="Arial" font-size="11.00">PID</text>
</a>
</g>
</g>
<!-- Node2&#45;&gt;Node1 -->
<g id="edge1_Node000001_Node000002" class="edge">
<title>Node2&#45;&gt;Node1</title>
<g id="a_edge1_Node000001_Node000002"><a xlink:title=" ">
<path fill="none" stroke="#9a32cd" stroke-dasharray="5,2" d="M35.35,-58.69C49.25,-46.23 67.83,-29.59 79.07,-19.52"/>
<polygon fill="#9a32cd" stroke="#9a32cd" points="33.25,-55.87 28.14,-65.15 37.92,-61.08 33.25,-55.87"/>
</a>
</g>
<text text-anchor="middle" x="66.62" y="-38.05" font-family="Arial" font-size="11.00" fill="grey"> pid</text>
</g>
<!-- Node3 -->
<g id="Node000003" class="node">
<title>Node3</title>
<g id="a_Node000003"><a xlink:href="../../d5/d02/structwinapi_1_1HandleView.html" target="_top" xlink:title=" ">
<polygon fill="white" stroke="#bfbfbf" points="125.88,-85.75 52.12,-85.75 52.12,-66.5 125.88,-66.5 125.88,-85.75"/>
<text text-anchor="middle" x="89" y="-71.3" font-family="Arial" font-size="11.00">HandleView</text>
</a>
</g>
</g>
<!-- Node3&#45;&gt;Node1 -->
<g id="edge2_Node000001_Node000003" class="edge">
<title>Node3&#45;&gt;Node1</title>
<g id="a_edge2_Node000001_Node000003"><a xlink:title=" ">
<path fill="none" stroke="#9a32cd" stroke-dasharray="5,2" d="M89,-54.65C89,-42.82 89,-28.54 89,-19.52"/>
<polygon fill="#9a32cd" stroke="#9a32cd" points="85.5,-54.64 89,-64.64 92.5,-54.64 85.5,-54.64"/>
</a>
</g>
<text text-anchor="middle" x="106.62" y="-38.05" font-family="Arial" font-size="11.00" fill="grey"> handle</text>
</g>
<!-- Node4 -->
<g id="Node000004" class="node">
<title>Node4</title>
<g id="a_Node000004"><a xlink:href="../../db/d87/structwinapi_1_1detail_1_1PointerLike.html" target="_top" xlink:title=" ">
<polygon fill="white" stroke="#bfbfbf" points="116.62,-142 47.38,-142 47.38,-122.75 116.62,-122.75 116.62,-142"/>
<text text-anchor="middle" x="82" y="-127.55" font-family="Arial" font-size="11.00">PointerLike</text>
</a>
</g>
</g>
<!-- Node4&#45;&gt;Node3 -->
<g id="edge3_Node000003_Node000004" class="edge">
<title>Node4&#45;&gt;Node3</title>
<g id="a_edge3_Node000003_Node000004"><a xlink:title=" ">
<path fill="none" stroke="#63b8ff" d="M84.6,-111.19C85.73,-102.48 86.98,-92.74 87.87,-85.92"/>
<polygon fill="#63b8ff" stroke="#63b8ff" points="81.16,-110.55 83.35,-120.92 88.1,-111.45 81.16,-110.55"/>
</a>
</g>
</g>
<!-- Node5 -->
<g id="Node000005" class="node">
<title>Node5</title>
<g id="a_Node000005"><a xlink:title=" ">
<polygon fill="white" stroke="#666666" points="201.12,-85.75 158.88,-85.75 158.88,-66.5 201.12,-66.5 201.12,-85.75"/>
<text text-anchor="middle" x="180" y="-71.3" font-family="Arial" font-size="11.00">string</text>
</a>
</g>
</g>
<!-- Node5&#45;&gt;Node1 -->
<g id="edge4_Node000001_Node000005" class="edge">
<title>Node5&#45;&gt;Node1</title>
<g id="a_edge4_Node000001_Node000005"><a xlink:title=" ">
<path fill="none" stroke="#9a32cd" stroke-dasharray="5,2" d="M159.06,-59.65C149.62,-52.73 138.3,-44.51 128,-37.25 119.56,-31.3 109.98,-24.75 102.43,-19.64"/>
<polygon fill="#9a32cd" stroke="#9a32cd" points="156.75,-62.29 166.88,-65.4 160.89,-56.65 156.75,-62.29"/>
</a>
</g>
<text text-anchor="middle" x="158" y="-38.05" font-family="Arial" font-size="11.00" fill="grey"> name</text>
</g>
<!-- Node6 -->
<g id="Node000006" class="node">
<title>Node6</title>
<g id="a_Node000006"><a xlink:title=" ">
<polygon fill="white" stroke="#666666" points="251.25,-142 134.75,-142 134.75,-122.75 251.25,-122.75 251.25,-142"/>
<text text-anchor="middle" x="193" y="-127.55" font-family="Arial" font-size="11.00">basic_string&lt; Char &gt;</text>
</a>
</g>
</g>
<!-- Node6&#45;&gt;Node5 -->
<g id="edge5_Node000005_Node000006" class="edge">
<title>Node6&#45;&gt;Node5</title>
<g id="a_edge5_Node000005_Node000006"><a xlink:title=" ">
<path fill="none" stroke="#63b8ff" d="M188.24,-111.49C186.13,-102.7 183.76,-92.82 182.11,-85.92"/>
<polygon fill="#63b8ff" stroke="#63b8ff" points="184.77,-112.04 190.5,-120.94 191.57,-110.4 184.77,-112.04"/>
</a>
</g>
</g>
</g>
</svg>
