<?xml version="1.0" encoding="UTF-8" standalone="no"?>
<!DOCTYPE svg PUBLIC "-//W3C//DTD SVG 1.1//EN"
 "http://www.w3.org/Graphics/SVG/1.1/DTD/svg11.dtd">
<!-- Generated by graphviz version 10.0.1 (0)
 -->
<!-- Title: ModuleEntry Pages: 1 -->
<svg width="212pt" height="150pt"
 viewBox="0.00 0.00 211.88 150.00" xmlns="http://www.w3.org/2000/svg" xmlns:xlink="http://www.w3.org/1999/xlink">

<svg id="main" version="1.1" xmlns="http://www.w3.org/2000/svg" xmlns:xlink="http://www.w3.org/1999/xlink" xml:space="preserve" onload="init(evt)">
<style type="text/css"><![CDATA[
.node, .edge {opacity: 0.7;}
.node.selected, .edge.selected {opacity: 1;}
.edge:hover path { stroke: red; }
.edge:hover polygon { stroke: red; fill: red; }
]]></style>
<script type="application/ecmascript" xlink:href="../../svg.min.js"/>
<svg id="graph" class="graph">
<g id="graph0" class="graph" transform="scale(1 1) rotate(0) translate(4 146)">
<title>ModuleEntry</title>
<!-- Node1 -->
<g id="Node000001" class="node">
<title>Node1</title>
<g id="a_Node000001"><a xlink:title="Describes an entry from a list of the modules belonging to the specified process.">
<polygon fill="#999999" stroke="#666666" points="117,-19.25 40.25,-19.25 40.25,0 117,0 117,-19.25"/>
<text text-anchor="middle" x="78.62" y="-4.8" font-family="Arial" font-size="11.00">ModuleEntry</text>
</a>
</g>
</g>
<!-- Node2 -->
<g id="Node000002" class="node">
<title>Node2</title>
<g id="a_Node000002"><a xlink:href="../../dd/d5e/structwinapi_1_1Handle.html" target="_top" xlink:title=" ">
<polygon fill="white" stroke="#bfbfbf" points="71.5,-85.75 21.75,-85.75 21.75,-66.5 71.5,-66.5 71.5,-85.75"/>
<text text-anchor="middle" x="46.62" y="-71.3" font-family="Arial" font-size="11.00">Handle</text>
</a>
</g>
</g>
<!-- Node2&#45;&gt;Node1 -->
<g id="edge1_Node000001_Node000002" class="edge">
<title>Node2&#45;&gt;Node1</title>
<g id="a_edge1_Node000001_Node000002"><a xlink:title=" ">
<path fill="none" stroke="#9a32cd" stroke-dasharray="5,2" d="M54.71,-55.8C57.35,-49.79 60.37,-43.19 63.38,-37.25 66.45,-31.17 70.26,-24.51 73.31,-19.37"/>
<polygon fill="#9a32cd" stroke="#9a32cd" points="51.54,-54.32 50.82,-64.89 57.97,-57.07 51.54,-54.32"/>
</a>
</g>
<text text-anchor="middle" x="81.25" y="-38.05" font-family="Arial" font-size="11.00" fill="grey"> handle</text>
</g>
<!-- Node3 -->
<g id="Node000003" class="node">
<title>Node3</title>
<g id="a_Node000003"><a xlink:href="../../db/d87/structwinapi_1_1detail_1_1PointerLike.html" target="_top" xlink:title=" ">
<polygon fill="white" stroke="#bfbfbf" points="69.25,-142 0,-142 0,-122.75 69.25,-122.75 69.25,-142"/>
<text text-anchor="middle" x="34.62" y="-127.55" font-family="Arial" font-size="11.00">PointerLike</text>
</a>
</g>
</g>
<!-- Node3&#45;&gt;Node2 -->
<g id="edge2_Node000002_Node000003" class="edge">
<title>Node3&#45;&gt;Node2</title>
<g id="a_edge2_Node000002_Node000003"><a xlink:title=" ">
<path fill="none" stroke="#63b8ff" d="M39.09,-111.19C41.02,-102.48 43.17,-92.74 44.68,-85.92"/>
<polygon fill="#63b8ff" stroke="#63b8ff" points="35.68,-110.42 36.93,-120.94 42.51,-111.93 35.68,-110.42"/>
</a>
</g>
</g>
<!-- Node4 -->
<g id="Node000004" class="node">
<title>Node4</title>
<g id="a_Node000004"><a xlink:title=" ">
<polygon fill="white" stroke="#666666" points="154.75,-85.75 112.5,-85.75 112.5,-66.5 154.75,-66.5 154.75,-85.75"/>
<text text-anchor="middle" x="133.62" y="-71.3" font-family="Arial" font-size="11.00">string</text>
</a>
</g>
</g>
<!-- Node4&#45;&gt;Node1 -->
<g id="edge3_Node000001_Node000004" class="edge">
<title>Node4&#45;&gt;Node1</title>
<g id="a_edge3_Node000001_Node000004"><a xlink:title=" ">
<path fill="none" stroke="#9a32cd" stroke-dasharray="5,2" d="M118.69,-57.61C108.18,-45.28 94.55,-29.31 86.21,-19.52"/>
<polygon fill="#9a32cd" stroke="#9a32cd" points="115.84,-59.67 125,-65 121.17,-55.12 115.84,-59.67"/>
</a>
</g>
<text text-anchor="middle" x="124.62" y="-38.05" font-family="Arial" font-size="11.00" fill="grey"> name</text>
</g>
<!-- Node5 -->
<g id="Node000005" class="node">
<title>Node5</title>
<g id="a_Node000005"><a xlink:title=" ">
<polygon fill="white" stroke="#666666" points="203.88,-142 87.38,-142 87.38,-122.75 203.88,-122.75 203.88,-142"/>
<text text-anchor="middle" x="145.62" y="-127.55" font-family="Arial" font-size="11.00">basic_string&lt; Char &gt;</text>
</a>
</g>
</g>
<!-- Node5&#45;&gt;Node4 -->
<g id="edge4_Node000004_Node000005" class="edge">
<title>Node5&#45;&gt;Node4</title>
<g id="a_edge4_Node000004_Node000005"><a xlink:title=" ">
<path fill="none" stroke="#63b8ff" d="M141.16,-111.19C139.23,-102.48 137.08,-92.74 135.57,-85.92"/>
<polygon fill="#63b8ff" stroke="#63b8ff" points="137.74,-111.93 143.32,-120.94 144.57,-110.42 137.74,-111.93"/>
</a>
</g>
</g>
</g>
</svg>
</svg>

<style type='text/css'>
<![CDATA[
[data-mouse-over-selected='false'] { opacity: 0.7; }
[data-mouse-over-selected='true']  { opacity: 1.0; }
]]>
</style>
<script type="application/ecmascript"><![CDATA[
document.addEventListener('DOMContentLoaded', (event) => {
  highlightEdges();
  highlightAdjacentNodes();
});
]]></script>
</svg>
