<?xml version="1.0" encoding="UTF-8" standalone="no"?>
<!DOCTYPE svg PUBLIC "-//W3C//DTD SVG 1.1//EN"
 "http://www.w3.org/Graphics/SVG/1.1/DTD/svg11.dtd">
<!-- Generated by graphviz version 10.0.1 (0)
 -->
<!-- Title: ModuleEntry Pages: 1 -->
<svg width="247pt" height="150pt"
 viewBox="0.00 0.00 247.25 150.00" xmlns="http://www.w3.org/2000/svg" xmlns:xlink="http://www.w3.org/1999/xlink">
<g id="graph0" class="graph" transform="scale(1 1) rotate(0) translate(4 146)">
<title>ModuleEntry</title>
<!-- Node1 -->
<g id="Node000001" class="node">
<title>Node1</title>
<g id="a_Node000001"><a xlink:title="Describes an entry from a list of the modules belonging to the specified process.">
<polygon fill="#999999" stroke="#666666" points="115.38,-19.25 38.62,-19.25 38.62,0 115.38,0 115.38,-19.25"/>
<text text-anchor="middle" x="77" y="-4.8" font-family="Arial" font-size="11.00">ModuleEntry</text>
</a>
</g>
</g>
<!-- Node2 -->
<g id="Node000002" class="node">
<title>Node2</title>
<g id="a_Node000002"><a xlink:href="../../df/d9b/structwinapi_1_1PID.html" target="_top" xlink:title="Wrapper for process ID (PID) integer.">
<polygon fill="white" stroke="#666666" points="34,-85.75 0,-85.75 0,-66.5 34,-66.5 34,-85.75"/>
<text text-anchor="middle" x="17" y="-71.3" font-family="Arial" font-size="11.00">PID</text>
</a>
</g>
</g>
<!-- Node2&#45;&gt;Node1 -->
<g id="edge1_Node000001_Node000002" class="edge">
<title>Node2&#45;&gt;Node1</title>
<g id="a_edge1_Node000001_Node000002"><a xlink:title=" ">
<path fill="none" stroke="#9a32cd" stroke-dasharray="5,2" d="M32.96,-57.97C44.47,-45.6 59.53,-29.4 68.73,-19.52"/>
<polygon fill="#9a32cd" stroke="#9a32cd" points="30.62,-55.34 26.37,-65.05 35.75,-60.11 30.62,-55.34"/>
</a>
</g>
<text text-anchor="middle" x="59.62" y="-38.05" font-family="Arial" font-size="11.00" fill="grey"> pid</text>
</g>
<!-- Node3 -->
<g id="Node000003" class="node">
<title>Node3</title>
<g id="a_Node000003"><a xlink:href="../../dd/d5e/structwinapi_1_1Handle.html" target="_top" xlink:title=" ">
<polygon fill="white" stroke="#bfbfbf" points="101.88,-85.75 52.12,-85.75 52.12,-66.5 101.88,-66.5 101.88,-85.75"/>
<text text-anchor="middle" x="77" y="-71.3" font-family="Arial" font-size="11.00">Handle</text>
</a>
</g>
</g>
<!-- Node3&#45;&gt;Node1 -->
<g id="edge2_Node000001_Node000003" class="edge">
<title>Node3&#45;&gt;Node1</title>
<g id="a_edge2_Node000001_Node000003"><a xlink:title=" ">
<path fill="none" stroke="#9a32cd" stroke-dasharray="5,2" d="M77,-54.65C77,-42.82 77,-28.54 77,-19.52"/>
<polygon fill="#9a32cd" stroke="#9a32cd" points="73.5,-54.64 77,-64.64 80.5,-54.64 73.5,-54.64"/>
</a>
</g>
<text text-anchor="middle" x="94.62" y="-38.05" font-family="Arial" font-size="11.00" fill="grey"> handle</text>
</g>
<!-- Node4 -->
<g id="Node000004" class="node">
<title>Node4</title>
<g id="a_Node000004"><a xlink:href="../../db/d87/structwinapi_1_1detail_1_1PointerLike.html" target="_top" xlink:title=" ">
<polygon fill="white" stroke="#bfbfbf" points="104.62,-142 35.38,-142 35.38,-122.75 104.62,-122.75 104.62,-142"/>
<text text-anchor="middle" x="70" y="-127.55" font-family="Arial" font-size="11.00">PointerLike</text>
</a>
</g>
</g>
<!-- Node4&#45;&gt;Node3 -->
<g id="edge3_Node000003_Node000004" class="edge">
<title>Node4&#45;&gt;Node3</title>
<g id="a_edge3_Node000003_Node000004"><a xlink:title=" ">
<path fill="none" stroke="#63b8ff" d="M72.6,-111.19C73.73,-102.48 74.98,-92.74 75.87,-85.92"/>
<polygon fill="#63b8ff" stroke="#63b8ff" points="69.16,-110.55 71.35,-120.92 76.1,-111.45 69.16,-110.55"/>
</a>
</g>
</g>
<!-- Node5 -->
<g id="Node000005" class="node">
<title>Node5</title>
<g id="a_Node000005"><a xlink:title=" ">
<polygon fill="white" stroke="#666666" points="189.12,-85.75 146.88,-85.75 146.88,-66.5 189.12,-66.5 189.12,-85.75"/>
<text text-anchor="middle" x="168" y="-71.3" font-family="Arial" font-size="11.00">string</text>
</a>
</g>
</g>
<!-- Node5&#45;&gt;Node1 -->
<g id="edge4_Node000001_Node000005" class="edge">
<title>Node5&#45;&gt;Node1</title>
<g id="a_edge4_Node000001_Node000005"><a xlink:title=" ">
<path fill="none" stroke="#9a32cd" stroke-dasharray="5,2" d="M147.06,-59.65C137.62,-52.73 126.3,-44.51 116,-37.25 107.56,-31.3 97.98,-24.75 90.43,-19.64"/>
<polygon fill="#9a32cd" stroke="#9a32cd" points="144.75,-62.29 154.88,-65.4 148.89,-56.65 144.75,-62.29"/>
</a>
</g>
<text text-anchor="middle" x="146" y="-38.05" font-family="Arial" font-size="11.00" fill="grey"> name</text>
</g>
<!-- Node6 -->
<g id="Node000006" class="node">
<title>Node6</title>
<g id="a_Node000006"><a xlink:title=" ">
<polygon fill="white" stroke="#666666" points="239.25,-142 122.75,-142 122.75,-122.75 239.25,-122.75 239.25,-142"/>
<text text-anchor="middle" x="181" y="-127.55" font-family="Arial" font-size="11.00">basic_string&lt; Char &gt;</text>
</a>
</g>
</g>
<!-- Node6&#45;&gt;Node5 -->
<g id="edge5_Node000005_Node000006" class="edge">
<title>Node6&#45;&gt;Node5</title>
<g id="a_edge5_Node000005_Node000006"><a xlink:title=" ">
<path fill="none" stroke="#63b8ff" d="M176.24,-111.49C174.13,-102.7 171.76,-92.82 170.11,-85.92"/>
<polygon fill="#63b8ff" stroke="#63b8ff" points="172.77,-112.04 178.5,-120.94 179.57,-110.4 172.77,-112.04"/>
</a>
</g>
</g>
</g>
</svg>
