<?xml version="1.0" encoding="UTF-8" standalone="no"?>
<!DOCTYPE svg PUBLIC "-//W3C//DTD SVG 1.1//EN"
 "http://www.w3.org/Graphics/SVG/1.1/DTD/svg11.dtd">
<!-- Generated by graphviz version 10.0.1 (0)
 -->
<!-- Title: PointerLike Pages: 1 -->
<svg width="337pt" height="83pt"
 viewBox="0.00 0.00 336.62 82.50" xmlns="http://www.w3.org/2000/svg" xmlns:xlink="http://www.w3.org/1999/xlink">
<g id="graph0" class="graph" transform="scale(1 1) rotate(0) translate(4 78.5)">
<title>PointerLike</title>
<!-- Node1 -->
<g id="Node000001" class="node">
<title>Node1</title>
<g id="a_Node000001"><a xlink:title=" ">
<polygon fill="#999999" stroke="#666666" points="173.88,-74.5 104.62,-74.5 104.62,-55.25 173.88,-55.25 173.88,-74.5"/>
<text text-anchor="middle" x="139.25" y="-60.05" font-family="Arial" font-size="11.00">PointerLike</text>
</a>
</g>
</g>
<!-- Node2 -->
<g id="Node000002" class="node">
<title>Node2</title>
<g id="a_Node000002"><a xlink:href="../../dd/de8/classwinapi_1_1Function.html" target="_top" xlink:title=" ">
<polygon fill="white" stroke="#bfbfbf" points="56.5,-19.25 0,-19.25 0,0 56.5,0 56.5,-19.25"/>
<text text-anchor="middle" x="28.25" y="-4.8" font-family="Arial" font-size="11.00">Function</text>
</a>
</g>
</g>
<!-- Node1&#45;&gt;Node2 -->
<g id="edge1_Node000001_Node000002" class="edge">
<title>Node1&#45;&gt;Node2</title>
<g id="a_edge1_Node000001_Node000002"><a xlink:title=" ">
<path fill="none" stroke="#63b8ff" d="M110.07,-49.87C90.18,-40.33 64.42,-27.98 47.17,-19.7"/>
<polygon fill="#63b8ff" stroke="#63b8ff" points="108.53,-53.02 119.06,-54.19 111.55,-46.71 108.53,-53.02"/>
</a>
</g>
</g>
<!-- Node3 -->
<g id="Node000003" class="node">
<title>Node3</title>
<g id="a_Node000003"><a xlink:href="../../dd/d5e/structwinapi_1_1Handle.html" target="_top" xlink:title=" ">
<polygon fill="white" stroke="#bfbfbf" points="124.12,-19.25 74.38,-19.25 74.38,0 124.12,0 124.12,-19.25"/>
<text text-anchor="middle" x="99.25" y="-4.8" font-family="Arial" font-size="11.00">Handle</text>
</a>
</g>
</g>
<!-- Node1&#45;&gt;Node3 -->
<g id="edge2_Node000001_Node000003" class="edge">
<title>Node1&#45;&gt;Node3</title>
<g id="a_edge2_Node000001_Node000003"><a xlink:title=" ">
<path fill="none" stroke="#63b8ff" d="M125.78,-45.94C119.13,-37.09 111.39,-26.79 106,-19.61"/>
<polygon fill="#63b8ff" stroke="#63b8ff" points="122.93,-47.98 131.74,-53.87 128.53,-43.77 122.93,-47.98"/>
</a>
</g>
</g>
<!-- Node4 -->
<g id="Node000004" class="node">
<title>Node4</title>
<g id="a_Node000004"><a xlink:href="../../d5/d02/structwinapi_1_1HandleView.html" target="_top" xlink:title=" ">
<polygon fill="white" stroke="#bfbfbf" points="216.12,-19.25 142.38,-19.25 142.38,0 216.12,0 216.12,-19.25"/>
<text text-anchor="middle" x="179.25" y="-4.8" font-family="Arial" font-size="11.00">HandleView</text>
</a>
</g>
</g>
<!-- Node1&#45;&gt;Node4 -->
<g id="edge3_Node000001_Node000004" class="edge">
<title>Node1&#45;&gt;Node4</title>
<g id="a_edge3_Node000001_Node000004"><a xlink:title=" ">
<path fill="none" stroke="#63b8ff" d="M152.72,-45.94C159.37,-37.09 167.11,-26.79 172.5,-19.61"/>
<polygon fill="#63b8ff" stroke="#63b8ff" points="149.97,-43.77 146.76,-53.87 155.57,-47.98 149.97,-43.77"/>
</a>
</g>
</g>
<!-- Node5 -->
<g id="Node000005" class="node">
<title>Node5</title>
<g id="a_Node000005"><a xlink:href="../../d7/d70/classwinapi_1_1MemoryAddress.html" target="_top" xlink:title=" ">
<polygon fill="white" stroke="#bfbfbf" points="328.62,-19.25 233.88,-19.25 233.88,0 328.62,0 328.62,-19.25"/>
<text text-anchor="middle" x="281.25" y="-4.8" font-family="Arial" font-size="11.00">MemoryAddress</text>
</a>
</g>
</g>
<!-- Node1&#45;&gt;Node5 -->
<g id="edge4_Node000001_Node000005" class="edge">
<title>Node1&#45;&gt;Node5</title>
<g id="a_edge4_Node000001_Node000005"><a xlink:title=" ">
<path fill="none" stroke="#63b8ff" d="M173.79,-50.92C199.57,-41.25 234.16,-28.29 257.04,-19.7"/>
<polygon fill="#63b8ff" stroke="#63b8ff" points="172.89,-47.52 164.76,-54.31 175.35,-54.08 172.89,-47.52"/>
</a>
</g>
</g>
</g>
</svg>
