<?xml version="1.0" encoding="UTF-8" standalone="no"?>
<!DOCTYPE svg PUBLIC "-//W3C//DTD SVG 1.1//EN"
 "http://www.w3.org/Graphics/SVG/1.1/DTD/svg11.dtd">
<!-- Generated by graphviz version 10.0.1 (0)
 -->
<!-- Title: PointerLike Pages: 1 -->
<svg width="170pt" height="83pt"
 viewBox="0.00 0.00 170.25 82.50" xmlns="http://www.w3.org/2000/svg" xmlns:xlink="http://www.w3.org/1999/xlink">
<g id="graph0" class="graph" transform="scale(1 1) rotate(0) translate(4 78.5)">
<title>PointerLike</title>
<!-- Node1 -->
<g id="Node000001" class="node">
<title>Node1</title>
<g id="a_Node000001"><a xlink:title=" ">
<polygon fill="#999999" stroke="#666666" points="104.5,-74.5 35.25,-74.5 35.25,-55.25 104.5,-55.25 104.5,-74.5"/>
<text text-anchor="middle" x="69.88" y="-60.05" font-family="Arial" font-size="11.00">PointerLike</text>
</a>
</g>
</g>
<!-- Node2 -->
<g id="Node000002" class="node">
<title>Node2</title>
<g id="a_Node000002"><a xlink:href="../../dd/d5e/structwinapi_1_1Handle.html" target="_top" xlink:title=" ">
<polygon fill="white" stroke="#bfbfbf" points="49.75,-19.25 0,-19.25 0,0 49.75,0 49.75,-19.25"/>
<text text-anchor="middle" x="24.88" y="-4.8" font-family="Arial" font-size="11.00">Handle</text>
</a>
</g>
</g>
<!-- Node1&#45;&gt;Node2 -->
<g id="edge1_Node000001_Node000002" class="edge">
<title>Node1&#45;&gt;Node2</title>
<g id="a_edge1_Node000001_Node000002"><a xlink:title=" ">
<path fill="none" stroke="#63b8ff" d="M55.2,-46.51C47.61,-37.53 38.67,-26.95 32.47,-19.61"/>
<polygon fill="#63b8ff" stroke="#63b8ff" points="52.34,-48.55 61.47,-53.93 57.69,-44.03 52.34,-48.55"/>
</a>
</g>
</g>
<!-- Node3 -->
<g id="Node000003" class="node">
<title>Node3</title>
<g id="a_Node000003"><a xlink:href="../../d7/d70/classwinapi_1_1MemoryAddress.html" target="_top" xlink:title=" ">
<polygon fill="white" stroke="#bfbfbf" points="162.25,-19.25 67.5,-19.25 67.5,0 162.25,0 162.25,-19.25"/>
<text text-anchor="middle" x="114.88" y="-4.8" font-family="Arial" font-size="11.00">MemoryAddress</text>
</a>
</g>
</g>
<!-- Node1&#45;&gt;Node3 -->
<g id="edge2_Node000001_Node000003" class="edge">
<title>Node1&#45;&gt;Node3</title>
<g id="a_edge2_Node000001_Node000003"><a xlink:title=" ">
<path fill="none" stroke="#63b8ff" d="M84.55,-46.51C92.14,-37.53 101.08,-26.95 107.28,-19.61"/>
<polygon fill="#63b8ff" stroke="#63b8ff" points="82.06,-44.03 78.28,-53.93 87.41,-48.55 82.06,-44.03"/>
</a>
</g>
</g>
</g>
</svg>
