<?xml version="1.0" encoding="UTF-8" standalone="no"?>
<!DOCTYPE svg PUBLIC "-//W3C//DTD SVG 1.1//EN"
 "http://www.w3.org/Graphics/SVG/1.1/DTD/svg11.dtd">
<!-- Generated by graphviz version 10.0.1 (0)
 -->
<!-- Title: PointerLike Pages: 1 -->
<svg width="245pt" height="83pt"
 viewBox="0.00 0.00 244.62 82.50" xmlns="http://www.w3.org/2000/svg" xmlns:xlink="http://www.w3.org/1999/xlink">
<g id="graph0" class="graph" transform="scale(1 1) rotate(0) translate(4 78.5)">
<title>PointerLike</title>
<!-- Node1 -->
<g id="Node000001" class="node">
<title>Node1</title>
<g id="a_Node000001"><a xlink:title=" ">
<polygon fill="#999999" stroke="#666666" points="133.88,-74.5 64.62,-74.5 64.62,-55.25 133.88,-55.25 133.88,-74.5"/>
<text text-anchor="middle" x="99.25" y="-60.05" font-family="Arial" font-size="11.00">PointerLike</text>
</a>
</g>
</g>
<!-- Node2 -->
<g id="Node000002" class="node">
<title>Node2</title>
<g id="a_Node000002"><a xlink:href="../../dd/de8/classwinapi_1_1Function.html" target="_top" xlink:title=" ">
<polygon fill="white" stroke="#bfbfbf" points="56.5,-19.25 0,-19.25 0,0 56.5,0 56.5,-19.25"/>
<text text-anchor="middle" x="28.25" y="-4.8" font-family="Arial" font-size="11.00">Function</text>
</a>
</g>
</g>
<!-- Node1&#45;&gt;Node2 -->
<g id="edge1_Node000001_Node000002" class="edge">
<title>Node1&#45;&gt;Node2</title>
<g id="a_edge1_Node000001_Node000002"><a xlink:title=" ">
<path fill="none" stroke="#63b8ff" d="M78,-47.94C65.61,-38.64 50.43,-27.26 40.12,-19.52"/>
<polygon fill="#63b8ff" stroke="#63b8ff" points="75.89,-50.73 85.99,-53.93 80.09,-45.13 75.89,-50.73"/>
</a>
</g>
</g>
<!-- Node3 -->
<g id="Node000003" class="node">
<title>Node3</title>
<g id="a_Node000003"><a xlink:href="../../dd/d5e/structwinapi_1_1Handle.html" target="_top" xlink:title=" ">
<polygon fill="white" stroke="#bfbfbf" points="124.12,-19.25 74.38,-19.25 74.38,0 124.12,0 124.12,-19.25"/>
<text text-anchor="middle" x="99.25" y="-4.8" font-family="Arial" font-size="11.00">Handle</text>
</a>
</g>
</g>
<!-- Node1&#45;&gt;Node3 -->
<g id="edge2_Node000001_Node000003" class="edge">
<title>Node1&#45;&gt;Node3</title>
<g id="a_edge2_Node000001_Node000003"><a xlink:title=" ">
<path fill="none" stroke="#63b8ff" d="M99.25,-43.63C99.25,-35.34 99.25,-26.17 99.25,-19.61"/>
<polygon fill="#63b8ff" stroke="#63b8ff" points="95.75,-43.57 99.25,-53.57 102.75,-43.57 95.75,-43.57"/>
</a>
</g>
</g>
<!-- Node4 -->
<g id="Node000004" class="node">
<title>Node4</title>
<g id="a_Node000004"><a xlink:href="../../d7/d70/classwinapi_1_1MemoryAddress.html" target="_top" xlink:title=" ">
<polygon fill="white" stroke="#bfbfbf" points="236.62,-19.25 141.88,-19.25 141.88,0 236.62,0 236.62,-19.25"/>
<text text-anchor="middle" x="189.25" y="-4.8" font-family="Arial" font-size="11.00">MemoryAddress</text>
</a>
</g>
</g>
<!-- Node1&#45;&gt;Node4 -->
<g id="edge3_Node000001_Node000004" class="edge">
<title>Node1&#45;&gt;Node4</title>
<g id="a_edge3_Node000001_Node000004"><a xlink:title=" ">
<path fill="none" stroke="#63b8ff" d="M124.27,-49.07C140.19,-39.65 160.31,-27.75 173.91,-19.7"/>
<polygon fill="#63b8ff" stroke="#63b8ff" points="122.64,-45.97 115.82,-54.07 126.21,-51.99 122.64,-45.97"/>
</a>
</g>
</g>
</g>
</svg>
